{"accessors":[{"bufferView":0,"byteOffset":0,"componentType":5126,"count":2817,"max":[2.425,7.14858,2.425],"min":[-2.425,-0.941121,-2.425],"normalized":false,"type":"VEC3"},{"bufferView":1,"byteOffset":0,"componentType":5126,"count":2817,"max":[1,0.999979,1,1],"min":[-1,-0.999995,-1,-1],"normalized":false,"type":"VEC4"},{"bufferView":2,"byteOffset":0,"componentType":5126,"count":2817,"max":[1,1,1],"min":[-1,-1,-1],"normalized":false,"type":"VEC3"},{"bufferView":3,"byteOffset":0,"componentType":5126,"count":2817,"max":[1,1],"min":[0,0],"normalized":false,"type":"VEC2"},{"bufferView":4,"byteOffset":0,"componentType":5125,"count":2817,"max":[2816],"min":[0],"normalized":false,"type":"SCALAR"},{"bufferView":5,"byteOffset":0,"componentType":5126,"count":300,"max":[1.475373,0.064302,1.403163],"min":[-1.475373,-0.064302,-1.403163],"normalized":false,"type":"VEC3"},{"bufferView":6,"byteOffset":0,"componentType":5126,"count":300,"max":[1,0.238348,0.983499,1],"min":[-1,-0.14094,-0.983133,-1],"normalized":false,"type":"VEC4"},{"bufferView":7,"byteOffset":0,"componentType":5126,"count":300,"max":[0.970212,0.992502,0.986022],"min":[-0.948273,-0.992506,-0.986018],"normalized":false,"type":"VEC3"},{"bufferView":8,"byteOffset":0,"componentType":5126,"count":300,"max":[0.9,0.666667],"min":[0,0.221116],"normalized":false,"type":"VEC2"},{"bufferView":9,"byteOffset":0,"componentType":5125,"count":300,"max":[299],"min":[0],"normalized":false,"type":"SCALAR"}],"asset":{"generator":"Godot Engine v4.2.1.stable.mono.official@b09f793f564a6c95dc76acc654b390e68441bd01","version":"2.0"},"bufferViews":[{"buffer":0,"byteLength":33804,"byteOffset":0},{"buffer":0,"byteLength":45072,"byteOffset":33804},{"buffer":0,"byteLength":33804,"byteOffset":78876},{"buffer":0,"byteLength":22536,"byteOffset":112680},{"buffer":0,"byteLength":11268,"byteOffset":135216},{"buffer":0,"byteLength":3600,"byteOffset":146484},{"buffer":0,"byteLength":4800,"byteOffset":150084},{"buffer":0,"byteLength":3600,"byteOffset":154884},{"buffer":0,"byteLength":2400,"byteOffset":158484},{"buffer":0,"byteLength":1200,"byteOffset":160884}],"buffers":[{"byteLength":162084,"uri":"chandelier0.bin"}],"extensions":{"KHR_lights_punctual":{"lights":[{"color":[0.97647100687027,0.623529016971588,0],"intensity":1,"range":2.06512999534607,"type":"point"},{"color":[0.811765015125275,0.341176003217697,0.815685987472534],"intensity":1,"range":2.27099990844727,"type":"point"},{"color":[0.811765015125275,0.341176003217697,0.815685987472534],"intensity":1,"range":2.27099990844727,"type":"point"},{"color":[0.811765015125275,0.341176003217697,0.815685987472534],"intensity":1,"range":2.27099990844727,"type":"point"},{"color":[0.97647100687027,0.623529016971588,0],"intensity":1,"range":2.06512999534607,"type":"point"},{"color":[0.811765015125275,0.341176003217697,0.815685987472534],"intensity":1,"range":2.27099990844727,"type":"point"},{"color":[0.811765015125275,0.341176003217697,0.815685987472534],"intensity":1,"range":2.27099990844727,"type":"point"},{"color":[0.811765015125275,0.341176003217697,0.815685987472534],"intensity":1,"range":2.27099990844727,"type":"point"}]},"OMI_collider":{"colliders":[{"height":1.5,"radius":1.29999995231628,"type":"cylinder"},{"height":0.100123003125191,"radius":2.41252994537354,"type":"cylinder"}]}},"extensionsRequired":["KHR_texture_transform"],"extensionsUsed":["GODOT_single_root","KHR_lights_punctual","KHR_materials_emissive_strength","KHR_texture_transform","OMI_collider","OMI_physics_body"],"images":[{"uri":"textures%2F_orm000.png"},{"uri":"textures%2F_normal000.png"}],"materials":[{"alphaMode":"BLEND","emissiveFactor":[0.880315244197845,0.728862404823303,0],"extensions":{"KHR_materials_emissive_strength":{"emissiveStrength":0.200000002980232}},"normalTexture":{"index":1,"scale":1},"pbrMetallicRoughness":{"baseColorFactor":[0.99999988079071,0.672443687915802,0.371237307786942,0.749019980430603],"metallicFactor":0,"metallicRoughnessTexture":{"extensions":{"KHR_texture_transform":{"scale":[2,2]}},"index":0},"roughnessFactor":1}},{"extensions":{},"pbrMetallicRoughness":{"baseColorFactor":[0.887923836708069,0.672443687915802,0.783537268638611,1],"metallicFactor":0,"roughnessFactor":0.189999997615814}}],"meshes":[{"extras":{"targetNames":[]},"primitives":[{"attributes":{"NORMAL":2,"POSITION":0,"TANGENT":1,"TEXCOORD_0":3},"indices":4,"material":0,"mode":4},{"attributes":{"NORMAL":7,"POSITION":5,"TANGENT":6,"TEXCOORD_0":8},"indices":9,"material":1,"mode":4}]}],"nodes":[{"children":[1,2,3,11,20],"extensions":{"OMI_physics_body":{"type":"static"}},"name":"Chandelier"},{"extensions":{"OMI_collider":{"collider":0}},"name":"CollisionShape3D","translation":[0,-0.42721799015999,0]},{"extensions":{"OMI_collider":{"collider":1}},"name":"CollisionShape3D2","translation":[0,-0.33850300312042,0]},{"children":[4],"extensions":{},"mesh":0,"name":"Model2"},{"children":[5,6,8,9,10],"extensions":{},"name":"CSGTorus3D","scale":[1,3,1]},{"extensions":{},"name":"CSGTorus3D2","scale":[1,0.330000013113022,1]},{"children":[7],"extensions":{},"name":"CSGTorus3D3","translation":[0,-0.13218399882317,0]},{"extensions":{},"name":"CSGTorus3D4","translation":[0,-0.09492050111294,0]},{"extensions":{},"name":"CSGCylinder3D4","translation":[0,-0.10696399956942,0]},{"extensions":{},"name":"CSGCylinder3D3","translation":[0,1.13285994529724,0]},{"extensions":{},"name":"CSGCylinder3D2","translation":[0,0.0470433011651039,0]},{"children":[12,13,14,15,16,17,18,19],"extensions":{},"name":"Lights"},{"extensions":{"KHR_lights_punctual":{"light":0}},"name":"Main Light","translation":[0,0.576174974441528,0]},{"extensions":{"KHR_lights_punctual":{"light":1}},"name":"Candle","translation":[0,0.650171995162964,-1.20834994316101]},{"extensions":{"KHR_lights_punctual":{"light":2}},"name":"Candle2","translation":[0,0.649999976158142,1.20799994468689]},{"extensions":{"KHR_lights_punctual":{"light":3}},"name":"Candle3","rotation":[0,0.707612574100494,0,0.706600606441498],"translation":[-1.20817005634308,0.650171995162964,0.00155306002125144]},{"extensions":{},"name":"GPUParticles3D","translation":[0,0.308382987976074,-1.20834994316101]},{"extensions":{},"name":"GPUParticles3D2","translation":[0,0.308209985494614,1.20799994468689]},{"extensions":{},"name":"GPUParticles3D3","rotation":[0,0.707612574100494,0,0.706600606441498],"translation":[-1.20817005634308,0.308382987976074,0.00155306002125144]},{"extensions":{},"name":"GPUParticles3D4","rotation":[0,0.707612574100494,0,0.706600606441498],"translation":[1.20817005634308,0.308209985494614,-0.00190496002324]},{"children":[21,22,23,24,25,26,27,28],"extensions":{},"name":"Lights2","rotation":[0,0.382683426141739,0,0.923879563808441],"scale":[1.99999487400055,1,1.99999487400055],"translation":[0,-0.55277800559998,0]},{"extensions":{"KHR_lights_punctual":{"light":4}},"name":"Main Light2","translation":[0,0.576174974441528,0]},{"extensions":{"KHR_lights_punctual":{"light":5}},"name":"Candle4","translation":[0,0.650171995162964,-1.20834994316101]},{"extensions":{"KHR_lights_punctual":{"light":6}},"name":"Candle22","translation":[0,0.649999976158142,1.20799994468689]},{"extensions":{"KHR_lights_punctual":{"light":7}},"name":"Candle32","rotation":[0,0.707612574100494,0,0.706600606441498],"translation":[-1.20817005634308,0.650171995162964,0.00155306002125144]},{"extensions":{},"name":"GPUParticles3D5","translation":[0,0.308382987976074,-1.20834994316101]},{"extensions":{},"name":"GPUParticles3D22","translation":[0,0.308209985494614,1.20799994468689]},{"extensions":{},"name":"GPUParticles3D32","rotation":[0,0.707612574100494,0,0.706600606441498],"translation":[-1.20817005634308,0.308382987976074,0.00155306002125144]},{"extensions":{},"name":"GPUParticles3D42","rotation":[0,0.707612574100494,0,0.706600606441498],"translation":[1.20817005634308,0.308209985494614,-0.00190496002324]}],"samplers":[{"magFilter":9729,"minFilter":9987,"wrapS":10497,"wrapT":10497}],"scene":0,"scenes":[{"nodes":[0]}],"textures":[{"sampler":0,"source":0},{"sampler":0,"source":1}]}