{"accessors":[{"bufferView":0,"byteOffset":0,"componentType":5126,"count":333,"max":[0.9,1.5,0.05],"min":[-0.9,-1.5,-0.05],"normalized":false,"type":"VEC3"},{"bufferView":1,"byteOffset":0,"componentType":5126,"count":333,"max":[0,0.970141,0.000076,1],"min":[-1,-1,-1,-1],"normalized":false,"type":"VEC4"},{"bufferView":2,"byteOffset":0,"componentType":5126,"count":333,"max":[1,1,1],"min":[-1,-1,-1],"normalized":false,"type":"VEC3"},{"bufferView":3,"byteOffset":0,"componentType":5126,"count":333,"max":[1,1],"min":[0,0],"normalized":false,"type":"VEC2"},{"bufferView":4,"byteOffset":0,"componentType":5125,"count":333,"max":[332],"min":[0],"normalized":false,"type":"SCALAR"},{"bufferView":5,"byteOffset":0,"componentType":5126,"count":537,"max":[0.46425,1.158551,0.125],"min":[-0.46425,-0.483547,-0.101645],"normalized":false,"type":"VEC3"},{"bufferView":6,"byteOffset":0,"componentType":5126,"count":537,"max":[1,1,0.238991,1],"min":[-1,-1,-0.267415,-1],"normalized":false,"type":"VEC4"},{"bufferView":7,"byteOffset":0,"componentType":5126,"count":537,"max":[1,1,1],"min":[-1,-1,-1],"normalized":false,"type":"VEC3"},{"bufferView":8,"byteOffset":0,"componentType":5126,"count":537,"max":[1,1],"min":[0,0],"normalized":false,"type":"VEC2"},{"bufferView":9,"byteOffset":0,"componentType":5125,"count":537,"max":[536],"min":[0],"normalized":false,"type":"SCALAR"},{"bufferView":10,"byteOffset":0,"componentType":5126,"count":120,"max":[0.166,-0.267547,-0.097355],"min":[-0.166,-0.599547,-0.253],"normalized":false,"type":"VEC3"},{"bufferView":11,"byteOffset":0,"componentType":5126,"count":120,"max":[1,1,0.473637,1],"min":[-1,-1,-0.459762,1],"normalized":false,"type":"VEC4"},{"bufferView":12,"byteOffset":0,"componentType":5126,"count":120,"max":[1,1,0.920704],"min":[-1,-1,-1],"normalized":false,"type":"VEC3"},{"bufferView":13,"byteOffset":0,"componentType":5126,"count":120,"max":[1,1],"min":[0,0.106492],"normalized":false,"type":"VEC2"},{"bufferView":14,"byteOffset":0,"componentType":5125,"count":120,"max":[119],"min":[0],"normalized":false,"type":"SCALAR"},{"bufferView":15,"byteOffset":0,"componentType":5126,"count":186,"max":[0.203438,1.05639,-0.05424],"min":[-0.203437,0.305661,-0.1],"normalized":false,"type":"VEC3"},{"bufferView":16,"byteOffset":0,"componentType":5126,"count":186,"max":[1,1,0.470016,1],"min":[-1,-0.994884,-1,-1],"normalized":false,"type":"VEC4"},{"bufferView":17,"byteOffset":0,"componentType":5126,"count":186,"max":[1,1,0.000055],"min":[-1,-1,-1],"normalized":false,"type":"VEC3"},{"bufferView":18,"byteOffset":0,"componentType":5126,"count":186,"max":[1,1],"min":[0,0],"normalized":false,"type":"VEC2"},{"bufferView":19,"byteOffset":0,"componentType":5125,"count":186,"max":[185],"min":[0],"normalized":false,"type":"SCALAR"}],"asset":{"generator":"Godot Engine v4.2.1.stable.mono.official@b09f793f564a6c95dc76acc654b390e68441bd01","version":"2.0"},"bufferViews":[{"buffer":0,"byteLength":3996,"byteOffset":0},{"buffer":0,"byteLength":5328,"byteOffset":3996},{"buffer":0,"byteLength":3996,"byteOffset":9324},{"buffer":0,"byteLength":2664,"byteOffset":13320},{"buffer":0,"byteLength":1332,"byteOffset":15984},{"buffer":0,"byteLength":6444,"byteOffset":17316},{"buffer":0,"byteLength":8592,"byteOffset":23760},{"buffer":0,"byteLength":6444,"byteOffset":32352},{"buffer":0,"byteLength":4296,"byteOffset":38796},{"buffer":0,"byteLength":2148,"byteOffset":43092},{"buffer":0,"byteLength":1440,"byteOffset":45240},{"buffer":0,"byteLength":1920,"byteOffset":46680},{"buffer":0,"byteLength":1440,"byteOffset":48600},{"buffer":0,"byteLength":960,"byteOffset":50040},{"buffer":0,"byteLength":480,"byteOffset":51000},{"buffer":0,"byteLength":2232,"byteOffset":51480},{"buffer":0,"byteLength":2976,"byteOffset":53712},{"buffer":0,"byteLength":2232,"byteOffset":56688},{"buffer":0,"byteLength":1488,"byteOffset":58920},{"buffer":0,"byteLength":744,"byteOffset":60408}],"buffers":[{"byteLength":61152,"uri":"door0.bin"}],"extensions":{"OMI_collider":{"colliders":[{"size":[1.79999995231628,3,0.300000011920929],"type":"box"}]}},"extensionsUsed":["GODOT_single_root","KHR_materials_emissive_strength","OMI_collider","OMI_physics_body"],"images":[{"uri":"textures%2F_albedo000.png"}],"materials":[{"extensions":{},"pbrMetallicRoughness":{"baseColorFactor":[0.287440747022629,0.462077051401138,0.479320704936981,1],"baseColorTexture":{"index":0},"metallicFactor":0,"roughnessFactor":1}},{"extensions":{},"pbrMetallicRoughness":{"baseColorFactor":[0.50888055562973,0.242281317710876,0.0262413285672665,1],"metallicFactor":0.310000002384186,"roughnessFactor":0.310000002384186}},{"extensions":{},"pbrMetallicRoughness":{"baseColorFactor":[0.50888055562973,0.242281317710876,0.0262413285672665,1],"metallicFactor":0.310000002384186,"roughnessFactor":0.310000002384186}},{"emissiveFactor":[0.8532435297966,0.522329330444336,0.904365181922913],"extensions":{"KHR_materials_emissive_strength":{"emissiveStrength":2}},"pbrMetallicRoughness":{"baseColorFactor":[0.445200800895691,0.0451861433684826,0.59720104932785,1],"metallicFactor":0.310000002384186,"roughnessFactor":0.310000002384186}}],"meshes":[{"extras":{"targetNames":[]},"primitives":[{"attributes":{"NORMAL":2,"POSITION":0,"TANGENT":1,"TEXCOORD_0":3},"indices":4,"material":0,"mode":4},{"attributes":{"NORMAL":7,"POSITION":5,"TANGENT":6,"TEXCOORD_0":8},"indices":9,"material":1,"mode":4},{"attributes":{"NORMAL":12,"POSITION":10,"TANGENT":11,"TEXCOORD_0":13},"indices":14,"material":2,"mode":4},{"attributes":{"NORMAL":17,"POSITION":15,"TANGENT":16,"TEXCOORD_0":18},"indices":19,"material":3,"mode":4}]}],"nodes":[{"children":[1,9,10],"extensions":{},"name":"DoorFrame"},{"children":[2,3],"extensions":{"OMI_physics_body":{"type":"kinematic"}},"name":"Door","translation":[0.899999976158142,0,0]},{"extensions":{"OMI_collider":{"collider":0}},"name":"CollisionShape3D","translation":[-0.89999997615814,0,0]},{"children":[4,6],"extensions":{},"mesh":0,"name":"CSGBox3D2","translation":[-0.90975898504257,0,0]},{"children":[5],"extensions":{},"name":"CSGCylinder3D","rotation":[0.70710676908493,0,0,0.70710676908493],"translation":[0,-0.43354699015617,0]},{"extensions":{},"name":"CSGSphere3D","scale":[1,0.5,1],"translation":[0,-0.17000000178814,0]},{"children":[7,8],"extensions":{},"name":"CSGCylinder3D2","rotation":[0.70710676908493,0,0,0.70710676908493],"scale":[0.75,1,1],"translation":[0,0.622480988502502,0.0000000596045985901128]},{"extensions":{},"name":"CSGCylinder3D3","scale":[1.25,1,1],"translation":[0,-0.17924000322819,-0.22753000259399]},{"extensions":{},"name":"CSGBox3D3","translation":[0,-0.15450200438499,0.116820000112057]},{"extensions":{},"name":"SoundManager"},{"extensions":{},"name":"NavigationObstacle3D"}],"samplers":[{"magFilter":9729,"minFilter":9987,"wrapS":10497,"wrapT":10497}],"scene":0,"scenes":[{"nodes":[0]}],"textures":[{"sampler":0,"source":0}]}