{"accessors":[{"bufferView":0,"byteOffset":0,"componentType":5126,"count":345,"max":[1,1.712222,0.75],"min":[-1,-0.75,-0.75],"normalized":false,"type":"VEC3"},{"bufferView":1,"byteOffset":0,"componentType":5126,"count":345,"max":[0.02521,0.707128,0.000324,1],"min":[-1,-1,-1,-1],"normalized":false,"type":"VEC4"},{"bufferView":2,"byteOffset":0,"componentType":5126,"count":345,"max":[1,1,1],"min":[-1,-1,-1],"normalized":false,"type":"VEC3"},{"bufferView":3,"byteOffset":0,"componentType":5126,"count":345,"max":[1,1],"min":[0,0],"normalized":false,"type":"VEC2"},{"bufferView":4,"byteOffset":0,"componentType":5125,"count":345,"max":[344],"min":[0],"normalized":false,"type":"SCALAR"},{"bufferView":5,"byteOffset":0,"componentType":5126,"count":330,"max":[0.5,9.95211,0.274526],"min":[-0.5,1.212222,-0.725474],"normalized":false,"type":"VEC3"},{"bufferView":6,"byteOffset":0,"componentType":5126,"count":330,"max":[0.000114,0.000122,0.289838,1],"min":[-1,-1,-1,-1],"normalized":false,"type":"VEC4"},{"bufferView":7,"byteOffset":0,"componentType":5126,"count":330,"max":[1,1,1],"min":[-1,-0.000214,-1],"normalized":false,"type":"VEC3"},{"bufferView":8,"byteOffset":0,"componentType":5126,"count":330,"max":[1,1],"min":[0,0],"normalized":false,"type":"VEC2"},{"bufferView":9,"byteOffset":0,"componentType":5125,"count":330,"max":[329],"min":[0],"normalized":false,"type":"SCALAR"}],"asset":{"generator":"Godot Engine v4.2.1.stable.mono.official@b09f793f564a6c95dc76acc654b390e68441bd01","version":"2.0"},"bufferViews":[{"buffer":0,"byteLength":4140,"byteOffset":0},{"buffer":0,"byteLength":5520,"byteOffset":4140},{"buffer":0,"byteLength":4140,"byteOffset":9660},{"buffer":0,"byteLength":2760,"byteOffset":13800},{"buffer":0,"byteLength":1380,"byteOffset":16560},{"buffer":0,"byteLength":3960,"byteOffset":17940},{"buffer":0,"byteLength":5280,"byteOffset":21900},{"buffer":0,"byteLength":3960,"byteOffset":27180},{"buffer":0,"byteLength":2640,"byteOffset":31140},{"buffer":0,"byteLength":1320,"byteOffset":33780}],"buffers":[{"byteLength":35100,"uri":"fireplace0.bin"}],"extensions":{"OMI_collider":{"colliders":[{"size":[2,10,1.5],"type":"box"}]}},"extensionsRequired":["KHR_texture_transform"],"extensionsUsed":["GODOT_single_root","KHR_texture_transform","OMI_collider","OMI_physics_body"],"images":[{"uri":"textures%2F_albedo000.png"},{"uri":"textures%2F_normal000.png"},{"uri":"textures%2F_albedo002.png"},{"uri":"textures%2F_normal002.png"}],"materials":[{"extensions":{},"normalTexture":{"index":1,"scale":1.1599999666214},"pbrMetallicRoughness":{"baseColorFactor":[0.0742136761546135,0.124771602451801,0.291771054267883,1],"baseColorTexture":{"extensions":{"KHR_texture_transform":{"scale":[0.400000005960464,0.400000005960464]}},"index":0},"metallicFactor":0,"roughnessFactor":1}},{"extensions":{},"normalTexture":{"index":3,"scale":1.1599999666214},"pbrMetallicRoughness":{"baseColorFactor":[0.644478976726532,0.630756556987762,0.630756556987762,1],"baseColorTexture":{"index":2},"metallicFactor":0,"roughnessFactor":1}}],"meshes":[{"extras":{"targetNames":[]},"primitives":[{"attributes":{"NORMAL":2,"POSITION":0,"TANGENT":1,"TEXCOORD_0":3},"indices":4,"material":0,"mode":4},{"attributes":{"NORMAL":7,"POSITION":5,"TANGENT":6,"TEXCOORD_0":8},"indices":9,"material":1,"mode":4}]}],"nodes":[{"children":[1,2,10],"extensions":{"OMI_physics_body":{"type":"static"}},"name":"Fireplace"},{"extensions":{"OMI_collider":{"collider":0}},"name":"CollisionShape3D","translation":[0,4.2418098449707,0]},{"children":[3],"extensions":{},"mesh":0,"name":"CSGCombiner3D2"},{"children":[4,5,6,7,8],"extensions":{},"name":"CSGBox3D"},{"extensions":{},"name":"CSGBox3D2","rotation":[0,0,-0.38268345594406,0.923879563808441],"translation":[0,0.722271978855133,0]},{"extensions":{},"name":"CSGBox3D4","translation":[0,2.49212002754211,-0.22547399997711]},{"extensions":{},"name":"CSGBox3D5","translation":[0,5.45326995849609,-0.22547399997711]},{"extensions":{},"name":"CSGBox3D6","translation":[0,8.45211029052734,-0.22547399997711]},{"children":[9],"extensions":{},"name":"CSGBox3D3","scale":[0.800000011920929,0.800000011920929,0.800000011920929],"translation":[0,0,0.375173002481461]},{"extensions":{},"name":"CSGBox3D22","rotation":[0,0,-0.38268345594406,0.923879563808441],"translation":[0,0.722271978855133,0]},{"extensions":{},"name":"NavigationObstacle3D"}],"samplers":[{"magFilter":9729,"minFilter":9987,"wrapS":10497,"wrapT":10497}],"scene":0,"scenes":[{"nodes":[0]}],"textures":[{"sampler":0,"source":0},{"sampler":0,"source":1},{"sampler":0,"source":2},{"sampler":0,"source":3}]}