{"accessors":[{"bufferView":0,"byteOffset":0,"componentType":5126,"count":606,"max":[1.5,2.142284,1.5],"min":[-1.5,-2.25,-1.5],"normalized":false,"type":"VEC3"},{"bufferView":1,"byteOffset":0,"componentType":5126,"count":606,"max":[0.999862,0.416574,1,1],"min":[-1,-0.559813,-0.99894,1],"normalized":false,"type":"VEC4"},{"bufferView":2,"byteOffset":0,"componentType":5126,"count":606,"max":[0.997179,0.998639,0.99919],"min":[-0.993704,-1,-0.999192],"normalized":false,"type":"VEC3"},{"bufferView":3,"byteOffset":0,"componentType":5126,"count":606,"max":[1,1],"min":[0,0.059555],"normalized":false,"type":"VEC2"},{"bufferView":4,"byteOffset":0,"componentType":5125,"count":606,"max":[605],"min":[0],"normalized":false,"type":"SCALAR"},{"bufferView":5,"byteOffset":0,"componentType":5126,"count":660,"max":[1.645,2.338439,1.424612],"min":[-1.645,-1.976249,-1.424612],"normalized":false,"type":"VEC3"},{"bufferView":6,"byteOffset":0,"componentType":5126,"count":660,"max":[1,0.481123,0.996887,1],"min":[-1,-0.394024,-1,-1],"normalized":false,"type":"VEC4"},{"bufferView":7,"byteOffset":0,"componentType":5126,"count":660,"max":[0.995119,1,0.99919],"min":[-0.995124,-0.999138,-0.999192],"normalized":false,"type":"VEC3"},{"bufferView":8,"byteOffset":0,"componentType":5126,"count":660,"max":[0.833333,0.833333],"min":[0,0],"normalized":false,"type":"VEC2"},{"bufferView":9,"byteOffset":0,"componentType":5125,"count":660,"max":[659],"min":[0],"normalized":false,"type":"SCALAR"},{"bufferView":10,"byteOffset":0,"componentType":5126,"count":90,"max":[1,5.777745,1],"min":[-1,2.777745,-1],"normalized":false,"type":"VEC3"},{"bufferView":11,"byteOffset":0,"componentType":5126,"count":90,"max":[0.002018,0,0.000076,-1],"min":[-1,-1,-1,-1],"normalized":false,"type":"VEC4"},{"bufferView":12,"byteOffset":0,"componentType":5126,"count":90,"max":[1,1,1],"min":[-1,-1,-1],"normalized":false,"type":"VEC3"},{"bufferView":13,"byteOffset":0,"componentType":5126,"count":90,"max":[1,1],"min":[0,0],"normalized":false,"type":"VEC2"},{"bufferView":14,"byteOffset":0,"componentType":5125,"count":90,"max":[89],"min":[0],"normalized":false,"type":"SCALAR"},{"bufferView":15,"byteOffset":0,"componentType":5126,"count":126,"max":[0.268,2.777745,0.268],"min":[-0.268,2.142284,-0.268],"normalized":false,"type":"VEC3"},{"bufferView":16,"byteOffset":0,"componentType":5126,"count":126,"max":[1,0.220434,0.990607,1],"min":[-1,-0.245192,-0.99061,-1],"normalized":false,"type":"VEC4"},{"bufferView":17,"byteOffset":0,"componentType":5126,"count":126,"max":[0.990607,0.741202,1],"min":[-0.990607,-0.000022,-1],"normalized":false,"type":"VEC3"},{"bufferView":18,"byteOffset":0,"componentType":5126,"count":126,"max":[0.875,0.71177],"min":[0,0.49995],"normalized":false,"type":"VEC2"},{"bufferView":19,"byteOffset":0,"componentType":5125,"count":126,"max":[125],"min":[0],"normalized":false,"type":"SCALAR"}],"asset":{"generator":"Godot Engine v4.2.1.stable.mono.official@b09f793f564a6c95dc76acc654b390e68441bd01","version":"2.0"},"bufferViews":[{"buffer":0,"byteLength":7272,"byteOffset":0},{"buffer":0,"byteLength":9696,"byteOffset":7272},{"buffer":0,"byteLength":7272,"byteOffset":16968},{"buffer":0,"byteLength":4848,"byteOffset":24240},{"buffer":0,"byteLength":2424,"byteOffset":29088},{"buffer":0,"byteLength":7920,"byteOffset":31512},{"buffer":0,"byteLength":10560,"byteOffset":39432},{"buffer":0,"byteLength":7920,"byteOffset":49992},{"buffer":0,"byteLength":5280,"byteOffset":57912},{"buffer":0,"byteLength":2640,"byteOffset":63192},{"buffer":0,"byteLength":1080,"byteOffset":65832},{"buffer":0,"byteLength":1440,"byteOffset":66912},{"buffer":0,"byteLength":1080,"byteOffset":68352},{"buffer":0,"byteLength":720,"byteOffset":69432},{"buffer":0,"byteLength":360,"byteOffset":70152},{"buffer":0,"byteLength":1512,"byteOffset":70512},{"buffer":0,"byteLength":2016,"byteOffset":72024},{"buffer":0,"byteLength":1512,"byteOffset":74040},{"buffer":0,"byteLength":1008,"byteOffset":75552},{"buffer":0,"byteLength":504,"byteOffset":76560}],"buffers":[{"byteLength":77064,"uri":"plant0.bin"}],"extensions":{"OMI_collider":{"colliders":[{"height":2,"radius":0.5,"type":"cylinder"}]}},"extensionsRequired":["KHR_texture_transform"],"extensionsUsed":["GODOT_single_root","KHR_texture_transform","OMI_collider","OMI_physics_body"],"images":[{"uri":"textures%2F_normal000.png"},{"uri":"textures%2F_normal002.png"},{"uri":"textures%2F_orm000.png"},{"uri":"textures%2F_normal003.png"},{"uri":"textures%2F_normal004.png"}],"materials":[{"extensions":{},"normalTexture":{"index":0,"scale":0.219999998807907},"pbrMetallicRoughness":{"baseColorFactor":[0.230740010738373,0.323143690824509,0.644478976726532,1],"metallicFactor":0.259999990463257,"roughnessFactor":0.119999997317791}},{"extensions":{},"normalTexture":{"index":1,"scale":0.219999998807907},"pbrMetallicRoughness":{"baseColorFactor":[0.230740010738373,0.323143690824509,0.644478976726532,1],"metallicFactor":0.259999990463257,"roughnessFactor":0.119999997317791}},{"extensions":{},"normalTexture":{"index":3,"scale":7.21000003814697},"pbrMetallicRoughness":{"baseColorFactor":[0,0.147027373313904,0.0241575110703707,1],"metallicFactor":0,"metallicRoughnessTexture":{"extensions":{"KHR_texture_transform":{"scale":[0.5,0.5]}},"index":2},"roughnessFactor":1}},{"extensions":{},"normalTexture":{"index":4,"scale":1},"pbrMetallicRoughness":{"baseColorFactor":[0.0953071936964989,0.0152085581794381,0,1],"metallicFactor":0,"roughnessFactor":1}}],"meshes":[{"extras":{"targetNames":[]},"primitives":[{"attributes":{"NORMAL":2,"POSITION":0,"TANGENT":1,"TEXCOORD_0":3},"indices":4,"material":0,"mode":4},{"attributes":{"NORMAL":7,"POSITION":5,"TANGENT":6,"TEXCOORD_0":8},"indices":9,"material":1,"mode":4},{"attributes":{"NORMAL":12,"POSITION":10,"TANGENT":11,"TEXCOORD_0":13},"indices":14,"material":2,"mode":4},{"attributes":{"NORMAL":17,"POSITION":15,"TANGENT":16,"TEXCOORD_0":18},"indices":19,"material":3,"mode":4}]}],"nodes":[{"children":[1,2,8],"extensions":{"OMI_physics_body":{"type":"static"}},"name":"Plant"},{"extensions":{"OMI_collider":{"collider":0}},"name":"CollisionShape3D","translation":[0,0.474992990493774,0]},{"children":[3],"extensions":{},"mesh":0,"name":"CSGCombiner3D2","scale":[0.300000011920929,0.300000011920929,0.300000011920929]},{"children":[4,5,6,7],"extensions":{},"name":"CSGSphere3D","scale":[1,1.5,1]},{"extensions":{},"name":"CSGTorus3D","translation":[0,-0.91956102848053,0]},{"extensions":{},"name":"CSGTorus3D2","translation":[0,1.31473994255066,0]},{"extensions":{},"name":"CSGBox3D","translation":[0,2.85183000564575,0]},{"extensions":{},"name":"CSGBox3D2","translation":[0,1.4282900094986,0]},{"extensions":{},"name":"NavigationObstacle3D"}],"samplers":[{"magFilter":9729,"minFilter":9987,"wrapS":10497,"wrapT":10497}],"scene":0,"scenes":[{"nodes":[0]}],"textures":[{"sampler":0,"source":0},{"sampler":0,"source":1},{"sampler":0,"source":2},{"sampler":0,"source":3},{"sampler":0,"source":4}]}