{"accessors":[{"bufferView":0,"byteOffset":0,"componentType":5126,"count":99,"max":[1,0.1,0.6],"min":[-1,-0.1,-0.6],"normalized":false,"type":"VEC3"},{"bufferView":1,"byteOffset":0,"componentType":5126,"count":99,"max":[0.154218,0,0.000076,1],"min":[-1,-1,-1,-1],"normalized":false,"type":"VEC4"},{"bufferView":2,"byteOffset":0,"componentType":5126,"count":99,"max":[1,1,1],"min":[-1,-1,-1],"normalized":false,"type":"VEC3"},{"bufferView":3,"byteOffset":0,"componentType":5126,"count":99,"max":[1,1],"min":[0,0],"normalized":false,"type":"VEC2"},{"bufferView":4,"byteOffset":0,"componentType":5125,"count":99,"max":[98],"min":[0],"normalized":false,"type":"SCALAR"},{"bufferView":5,"byteOffset":0,"componentType":5126,"count":84,"max":[0.753954,-0.1,-0.2366],"min":[-0.754,-0.860553,-1.164859],"normalized":false,"type":"VEC3"},{"bufferView":6,"byteOffset":0,"componentType":5126,"count":84,"max":[0.000129,0.720114,-0.000046,-1],"min":[-1,-0.693987,-0.72003,-1],"normalized":false,"type":"VEC4"},{"bufferView":7,"byteOffset":0,"componentType":5126,"count":84,"max":[1,0.720135,0.693867],"min":[-1,-0.720103,-0.72005],"normalized":false,"type":"VEC3"},{"bufferView":8,"byteOffset":0,"componentType":5126,"count":84,"max":[1,1],"min":[0,0],"normalized":false,"type":"VEC2"},{"bufferView":9,"byteOffset":0,"componentType":5125,"count":84,"max":[83],"min":[0],"normalized":false,"type":"SCALAR"}],"asset":{"generator":"Godot Engine v4.2.1.stable.mono.official@b09f793f564a6c95dc76acc654b390e68441bd01","version":"2.0"},"bufferViews":[{"buffer":0,"byteLength":1188,"byteOffset":0},{"buffer":0,"byteLength":1584,"byteOffset":1188},{"buffer":0,"byteLength":1188,"byteOffset":2772},{"buffer":0,"byteLength":792,"byteOffset":3960},{"buffer":0,"byteLength":396,"byteOffset":4752},{"buffer":0,"byteLength":1008,"byteOffset":5148},{"buffer":0,"byteLength":1344,"byteOffset":6156},{"buffer":0,"byteLength":1008,"byteOffset":7500},{"buffer":0,"byteLength":672,"byteOffset":8508},{"buffer":0,"byteLength":336,"byteOffset":9180}],"buffers":[{"byteLength":9516,"uri":"shelf0.bin"}],"extensions":{"OMI_collider":{"colliders":[{"size":[2,0.200000002980232,1.20000004768372],"type":"box"}]}},"extensionsRequired":["KHR_texture_transform"],"extensionsUsed":["GODOT_single_root","KHR_materials_emissive_strength","KHR_texture_transform","OMI_collider","OMI_physics_body"],"images":[{"uri":"textures%2F_albedo000.png"},{"uri":"textures%2F_albedo002.png"}],"materials":[{"emissiveFactor":[0.836007118225098,0.691011011600494,0.427470475435257],"extensions":{"KHR_materials_emissive_strength":{"emissiveStrength":0.100000001490116}},"pbrMetallicRoughness":{"baseColorFactor":[0.401978194713593,0.158960744738579,0.0202885158360004,1],"baseColorTexture":{"extensions":{"KHR_texture_transform":{"scale":[0.360000014305115,0.360000014305115]}},"index":0},"metallicFactor":0,"roughnessFactor":1}},{"extensions":{},"pbrMetallicRoughness":{"baseColorFactor":[0.10461662709713,0.0409150421619415,0.00477694906294346,1],"baseColorTexture":{"extensions":{"KHR_texture_transform":{"scale":[0.360000014305115,0.360000014305115]}},"index":1},"metallicFactor":0,"roughnessFactor":1}}],"meshes":[{"extras":{"targetNames":[]},"primitives":[{"attributes":{"NORMAL":2,"POSITION":0,"TANGENT":1,"TEXCOORD_0":3},"indices":4,"material":0,"mode":4},{"attributes":{"NORMAL":7,"POSITION":5,"TANGENT":6,"TEXCOORD_0":8},"indices":9,"material":1,"mode":4}]}],"nodes":[{"children":[1,2,5],"extensions":{"OMI_physics_body":{"type":"static"}},"name":"Shelf"},{"extensions":{"OMI_collider":{"collider":0}},"name":"CollisionShape3D"},{"children":[3,4],"extensions":{},"mesh":0,"name":"CSGBox3D2"},{"extensions":{},"name":"CSGBox3D3","rotation":[0.391228914260864,0,0,0.920293390750885],"translation":[0.653954029083252,-0.40676000714302,-0.69906502962112]},{"extensions":{},"name":"CSGBox3D22","rotation":[0.391228914260864,0,0,0.920293390750885],"translation":[-0.65399998426437,-0.4069100022316,-0.69942098855972]},{"extensions":{},"name":"NavigationObstacle3D"}],"samplers":[{"magFilter":9729,"minFilter":9987,"wrapS":10497,"wrapT":10497}],"scene":0,"scenes":[{"nodes":[0]}],"textures":[{"sampler":0,"source":0},{"sampler":0,"source":1}]}