{"accessors":[{"bufferView":0,"byteOffset":0,"componentType":5126,"count":2799,"max":[1,1.16849,2.500758],"min":[-1,1.00349,-2.5],"normalized":false,"type":"VEC3"},{"bufferView":1,"byteOffset":0,"componentType":5126,"count":2799,"max":[1,0.00162,0.100584,1],"min":[-1,-1,-1,-1],"normalized":false,"type":"VEC4"},{"bufferView":2,"byteOffset":0,"componentType":5126,"count":2799,"max":[1,1,1],"min":[-1,-1,-1],"normalized":false,"type":"VEC3"},{"bufferView":3,"byteOffset":0,"componentType":5126,"count":2799,"max":[1,1],"min":[0,0],"normalized":false,"type":"VEC2"},{"bufferView":4,"byteOffset":0,"componentType":5125,"count":2799,"max":[2798],"min":[0],"normalized":false,"type":"SCALAR"},{"bufferView":5,"byteOffset":0,"componentType":5126,"count":6798,"max":[1,1.070793,2.500758],"min":[-1.036573,0.070793,-2.531748],"normalized":false,"type":"VEC3"},{"bufferView":6,"byteOffset":0,"componentType":5126,"count":6798,"max":[1,1,1,1],"min":[-1,-1,-1,-1],"normalized":false,"type":"VEC4"},{"bufferView":7,"byteOffset":0,"componentType":5126,"count":6798,"max":[1,1,1],"min":[-1,-1,-1],"normalized":false,"type":"VEC3"},{"bufferView":8,"byteOffset":0,"componentType":5126,"count":6798,"max":[1,1],"min":[0,0],"normalized":false,"type":"VEC2"},{"bufferView":9,"byteOffset":0,"componentType":5125,"count":6798,"max":[6797],"min":[0],"normalized":false,"type":"SCALAR"},{"bufferView":10,"byteOffset":0,"componentType":5126,"count":414,"max":[0.9,0.070793,2.086603],"min":[-0.9,-0.483349,-2.086603],"normalized":false,"type":"VEC3"},{"bufferView":11,"byteOffset":0,"componentType":5126,"count":414,"max":[1,0.113176,1,1],"min":[-1,-0.508928,-1,-1],"normalized":false,"type":"VEC4"},{"bufferView":12,"byteOffset":0,"componentType":5126,"count":414,"max":[1,0.000042,1],"min":[-1,-1,-1],"normalized":false,"type":"VEC3"},{"bufferView":13,"byteOffset":0,"componentType":5126,"count":414,"max":[1,0.5],"min":[0,0],"normalized":false,"type":"VEC2"},{"bufferView":14,"byteOffset":0,"componentType":5125,"count":414,"max":[413],"min":[0],"normalized":false,"type":"SCALAR"}],"asset":{"generator":"Godot Engine v4.2.1.stable.mono.official@b09f793f564a6c95dc76acc654b390e68441bd01","version":"2.0"},"bufferViews":[{"buffer":0,"byteLength":33588,"byteOffset":0},{"buffer":0,"byteLength":44784,"byteOffset":33588},{"buffer":0,"byteLength":33588,"byteOffset":78372},{"buffer":0,"byteLength":22392,"byteOffset":111960},{"buffer":0,"byteLength":11196,"byteOffset":134352},{"buffer":0,"byteLength":81576,"byteOffset":145548},{"buffer":0,"byteLength":108768,"byteOffset":227124},{"buffer":0,"byteLength":81576,"byteOffset":335892},{"buffer":0,"byteLength":54384,"byteOffset":417468},{"buffer":0,"byteLength":27192,"byteOffset":471852},{"buffer":0,"byteLength":4968,"byteOffset":499044},{"buffer":0,"byteLength":6624,"byteOffset":504012},{"buffer":0,"byteLength":4968,"byteOffset":510636},{"buffer":0,"byteLength":3312,"byteOffset":515604},{"buffer":0,"byteLength":1656,"byteOffset":518916}],"buffers":[{"byteLength":520572,"uri":"table0.bin"}],"extensions":{"OMI_collider":{"colliders":[{"size":[2.00999999046326,1.66600000858307,5],"type":"box"}]}},"extensionsUsed":["GODOT_single_root","OMI_collider","OMI_physics_body"],"images":[{"uri":"textures%2F_normal000.png"},{"uri":"textures%2F_normal002.png"},{"uri":"textures%2F_albedo000.png"},{"uri":"textures%2F_normal003.png"}],"materials":[{"extensions":{},"normalTexture":{"index":0,"scale":0.689999997615814},"pbrMetallicRoughness":{"baseColorFactor":[0.0742136761546135,0.351532638072968,0.162029594182968,1],"metallicFactor":0,"roughnessFactor":1}},{"extensions":{},"normalTexture":{"index":1,"scale":0.689999997615814},"pbrMetallicRoughness":{"baseColorFactor":[0.0742136761546135,0.351532638072968,0.162029594182968,1],"metallicFactor":0,"roughnessFactor":1}},{"extensions":{},"normalTexture":{"index":3,"scale":0.689999997615814},"pbrMetallicRoughness":{"baseColorFactor":[0.201556622982025,0.0578055717051029,0.00518151605501771,1],"baseColorTexture":{"index":2},"metallicFactor":0,"roughnessFactor":1}}],"meshes":[{"extras":{"targetNames":[]},"primitives":[{"attributes":{"NORMAL":2,"POSITION":0,"TANGENT":1,"TEXCOORD_0":3},"indices":4,"material":0,"mode":4},{"attributes":{"NORMAL":7,"POSITION":5,"TANGENT":6,"TEXCOORD_0":8},"indices":9,"material":1,"mode":4},{"attributes":{"NORMAL":12,"POSITION":10,"TANGENT":11,"TEXCOORD_0":13},"indices":14,"material":2,"mode":4}]}],"nodes":[{"children":[1,2,32],"extensions":{"OMI_physics_body":{"type":"static"}},"name":"Table"},{"extensions":{"OMI_collider":{"collider":0}},"name":"CollisionShape3D","translation":[0,0.333068996667862,0]},{"children":[3,28,29,30,31],"extensions":{},"mesh":0,"name":"CSGCombiner3D2"},{"children":[4,5,6,7,8,9,10,11,12,13,14,15,16,17,18,19,20,21,22,23,24,25,26,27],"extensions":{},"name":"CSGBox3D","translation":[0,1.0859899520874,0]},{"extensions":{},"name":"CSGCylinder3D5","translation":[-0.73657298088074,-0.51519697904587,-2.27193999290466]},{"extensions":{},"name":"CSGCylinder3D6","translation":[-0.73657298088074,-0.51519697904587,-1.80527997016907]},{"extensions":{},"name":"CSGCylinder3D7","translation":[-0.73657298088074,-0.51519697904587,-1.36082994937897]},{"extensions":{},"name":"CSGCylinder3D8","translation":[-0.73657298088074,-0.51519697904587,-0.86553299427032]},{"extensions":{},"name":"CSGCylinder3D9","translation":[-0.73657298088074,-0.51519697904587,-0.31959998607635]},{"extensions":{},"name":"CSGCylinder3D10","translation":[-0.73657298088074,-0.51519697904587,0.147063001990318]},{"extensions":{},"name":"CSGCylinder3D11","translation":[-0.73657298088074,-0.51519697904587,0.591511011123657]},{"extensions":{},"name":"CSGCylinder3D12","translation":[-0.73657298088074,-0.51519697904587,1.08680999279022]},{"extensions":{},"name":"CSGCylinder3D13","translation":[-0.73657298088074,-0.51519697904587,1.66828000545502]},{"extensions":{},"name":"CSGCylinder3D14","translation":[-0.73657298088074,-0.51519697904587,2.1635799407959]},{"extensions":{},"name":"CSGCylinder3D17","rotation":[0,0.120778180658817,0,0.992679536342621],"translation":[0.708180010318756,-0.51519697904587,-2.2301299571991]},{"extensions":{},"name":"CSGCylinder3D18","rotation":[0,-0.07738907635212,0,0.997000992298126],"translation":[0.698377013206482,-0.51519697904587,-1.80527997016907]},{"extensions":{},"name":"CSGCylinder3D19","translation":[0.698377013206482,-0.51519697904587,-1.36082994937897]},{"extensions":{},"name":"CSGCylinder3D20","translation":[0.698377013206482,-0.51519697904587,-0.86553299427032]},{"extensions":{},"name":"CSGCylinder3D21","translation":[0.698377013206482,-0.51519697904587,-0.31959998607635]},{"extensions":{},"name":"CSGCylinder3D22","translation":[0.698377013206482,-0.51519697904587,0.147063001990318]},{"extensions":{},"name":"CSGCylinder3D23","translation":[0.698377013206482,-0.51519697904587,0.591511011123657]},{"extensions":{},"name":"CSGCylinder3D24","translation":[0.698377013206482,-0.51519697904587,1.08680999279022]},{"extensions":{},"name":"CSGCylinder3D25","translation":[0.698377013206482,-0.51519697904587,1.66828000545502]},{"extensions":{},"name":"CSGCylinder3D26","translation":[0.698377013206482,-0.51519697904587,2.1635799407959]},{"extensions":{},"name":"CSGCylinder3D15","translation":[-0.2878310084343,-0.51519697904587,2.24095010757446]},{"extensions":{},"name":"CSGCylinder3D16","translation":[0.28983399271965,-0.51519697904587,2.24095010757446]},{"extensions":{},"name":"CSGCylinder3D27","translation":[-0.2878310084343,-0.51519697904587,-2.23377990722656]},{"extensions":{},"name":"CSGCylinder3D28","translation":[0.28983399271965,-0.51519697904587,-2.23377990722656]},{"extensions":{},"name":"CSGCylinder3D","translation":[0.800000011920929,0.266651004552841,-2]},{"extensions":{},"name":"CSGCylinder3D2","translation":[-0.80000001192093,0.266999989748001,-2]},{"extensions":{},"name":"CSGCylinder3D3","translation":[0.800000011920929,0.266999989748001,2]},{"extensions":{},"name":"CSGCylinder3D4","translation":[-0.80000001192093,0.266999989748001,2]},{"extensions":{},"name":"NavigationObstacle3D"}],"samplers":[{"magFilter":9729,"minFilter":9987,"wrapS":10497,"wrapT":10497}],"scene":0,"scenes":[{"nodes":[0]}],"textures":[{"sampler":0,"source":0},{"sampler":0,"source":1},{"sampler":0,"source":2},{"sampler":0,"source":3}]}