{"accessors":[{"bufferView":0,"byteOffset":0,"componentType":5126,"count":180,"max":[2,0.025,3.5],"min":[-2,-0.025,-3.5],"normalized":false,"type":"VEC3"},{"bufferView":1,"byteOffset":0,"componentType":5126,"count":180,"max":[0.001283,0.000031,0.000076,-1],"min":[-1,-1,-1,-1],"normalized":false,"type":"VEC4"},{"bufferView":2,"byteOffset":0,"componentType":5126,"count":180,"max":[1,1,1],"min":[-1,-1,-1],"normalized":false,"type":"VEC3"},{"bufferView":3,"byteOffset":0,"componentType":5126,"count":180,"max":[1,1],"min":[0,0],"normalized":false,"type":"VEC2"},{"bufferView":4,"byteOffset":0,"componentType":5125,"count":180,"max":[179],"min":[0],"normalized":false,"type":"SCALAR"},{"bufferView":5,"byteOffset":0,"componentType":5126,"count":468,"max":[2,0.03,3.5],"min":[-2,-0.03,-3.5],"normalized":false,"type":"VEC3"},{"bufferView":6,"byteOffset":0,"componentType":5126,"count":468,"max":[0.000104,0.001222,0.758337,1],"min":[-1,-1,-1,-1],"normalized":false,"type":"VEC4"},{"bufferView":7,"byteOffset":0,"componentType":5126,"count":468,"max":[1,1,1],"min":[-1,-1,-1],"normalized":false,"type":"VEC3"},{"bufferView":8,"byteOffset":0,"componentType":5126,"count":468,"max":[1,1],"min":[0,0],"normalized":false,"type":"VEC2"},{"bufferView":9,"byteOffset":0,"componentType":5125,"count":468,"max":[467],"min":[0],"normalized":false,"type":"SCALAR"},{"bufferView":10,"byteOffset":0,"componentType":5126,"count":48,"max":[7,1.60669,7],"min":[-7.000001,-7.1455,-7],"normalized":false,"type":"VEC3"},{"bufferView":11,"byteOffset":0,"componentType":5126,"count":48,"max":[0.915345,0.361627,0.915378,1],"min":[-0.915381,-0.361677,-0.915389,-1],"normalized":false,"type":"VEC4"},{"bufferView":12,"byteOffset":0,"componentType":5126,"count":48,"max":[0.89806,0.439923,0.898068],"min":[-0.898068,-1,-0.89806],"normalized":false,"type":"VEC3"},{"bufferView":13,"byteOffset":0,"componentType":5126,"count":48,"max":[1,0.612427],"min":[0,0],"normalized":false,"type":"VEC2"},{"bufferView":14,"byteOffset":0,"componentType":5125,"count":48,"max":[47],"min":[0],"normalized":false,"type":"SCALAR"},{"bufferView":15,"byteOffset":0,"componentType":5126,"count":24,"max":[6.983888,1.606691,6.983887],"min":[-6.983886,-7.1455,-6.983887],"normalized":false,"type":"VEC3"},{"bufferView":16,"byteOffset":0,"componentType":5126,"count":24,"max":[0.915374,0.361647,0.915334,1],"min":[-0.915356,-0.361597,-0.915367,-1],"normalized":false,"type":"VEC4"},{"bufferView":17,"byteOffset":0,"componentType":5126,"count":24,"max":[0.898044,-0.439882,0.898044],"min":[-0.898056,-0.439923,-0.898036],"normalized":false,"type":"VEC3"},{"bufferView":18,"byteOffset":0,"componentType":5126,"count":24,"max":[0.75,0.633075],"min":[0,0.049811],"normalized":false,"type":"VEC2"},{"bufferView":19,"byteOffset":0,"componentType":5125,"count":24,"max":[23],"min":[0],"normalized":false,"type":"SCALAR"},{"bufferView":20,"byteOffset":0,"componentType":5126,"count":24,"max":[2.713013,1.606691,2.713012],"min":[-2.713012,1.606689,-2.713013],"normalized":false,"type":"VEC3"},{"bufferView":21,"byteOffset":0,"componentType":5126,"count":24,"max":[0.707161,0.000086,-0.707053,1],"min":[0.707031,-0.000086,-0.707182,1],"normalized":false,"type":"VEC4"},{"bufferView":22,"byteOffset":0,"componentType":5126,"count":24,"max":[0.000061,1,0.000076],"min":[-0.000076,1,-0.000076],"normalized":false,"type":"VEC3"},{"bufferView":23,"byteOffset":0,"componentType":5126,"count":24,"max":[0.883678,0.883678],"min":[0.116322,0.116322],"normalized":false,"type":"VEC2"},{"bufferView":24,"byteOffset":0,"componentType":5125,"count":24,"max":[23],"min":[0],"normalized":false,"type":"SCALAR"}],"asset":{"generator":"Godot Engine v4.2.1.stable.mono.official@b09f793f564a6c95dc76acc654b390e68441bd01","version":"2.0"},"bufferViews":[{"buffer":0,"byteLength":2160,"byteOffset":0},{"buffer":0,"byteLength":2880,"byteOffset":2160},{"buffer":0,"byteLength":2160,"byteOffset":5040},{"buffer":0,"byteLength":1440,"byteOffset":7200},{"buffer":0,"byteLength":720,"byteOffset":8640},{"buffer":0,"byteLength":5616,"byteOffset":9360},{"buffer":0,"byteLength":7488,"byteOffset":14976},{"buffer":0,"byteLength":5616,"byteOffset":22464},{"buffer":0,"byteLength":3744,"byteOffset":28080},{"buffer":0,"byteLength":1872,"byteOffset":31824},{"buffer":0,"byteLength":576,"byteOffset":33696},{"buffer":0,"byteLength":768,"byteOffset":34272},{"buffer":0,"byteLength":576,"byteOffset":35040},{"buffer":0,"byteLength":384,"byteOffset":35616},{"buffer":0,"byteLength":192,"byteOffset":36000},{"buffer":0,"byteLength":288,"byteOffset":36192},{"buffer":0,"byteLength":384,"byteOffset":36480},{"buffer":0,"byteLength":288,"byteOffset":36864},{"buffer":0,"byteLength":192,"byteOffset":37152},{"buffer":0,"byteLength":96,"byteOffset":37344},{"buffer":0,"byteLength":288,"byteOffset":37440},{"buffer":0,"byteLength":384,"byteOffset":37728},{"buffer":0,"byteLength":288,"byteOffset":38112},{"buffer":0,"byteLength":192,"byteOffset":38400},{"buffer":0,"byteLength":96,"byteOffset":38592}],"buffers":[{"byteLength":38688,"uri":"window0.bin"}],"extensions":{"KHR_lights_punctual":{"lights":[{"color":[0.407842993736267,0.713725984096527,0.929412007331848],"intensity":0.462999999523163,"range":68.1350021362305,"spot":{"innerConeAngle":0.856797993183136,"outerConeAngle":1.04719758033752},"type":"spot"}]}},"extensionsRequired":["KHR_texture_transform"],"extensionsUsed":["GODOT_single_root","KHR_lights_punctual","KHR_materials_unlit","KHR_texture_transform"],"images":[{"uri":"textures%2F_normal000.png"},{"uri":"textures%2F_albedo000.png"},{"uri":"textures%2F_albedo002.png"},{"uri":"textures%2F_albedo003.png"},{"uri":"textures%2F_albedo004.png"}],"materials":[{"alphaMode":"BLEND","extensions":{},"normalTexture":{"index":0,"scale":0.75},"pbrMetallicRoughness":{"baseColorFactor":[0.287440747022629,0.644478976726532,0.799101948738098,0.207843005657196],"metallicFactor":0.150000005960464,"roughnessFactor":0.200000002980232}},{"extensions":{},"pbrMetallicRoughness":{"baseColorFactor":[0.304987013339996,0.0761851966381073,0.0202885158360004,1],"baseColorTexture":{"index":1},"metallicFactor":0,"roughnessFactor":1}},{"alphaMode":"BLEND","doubleSided":true,"extensions":{"KHR_materials_unlit":{}},"pbrMetallicRoughness":{"baseColorFactor":[0.412542849779129,0.715693295001984,0.99999988079071,0.337255001068115],"baseColorTexture":{"extensions":{"KHR_texture_transform":{"offset":[0,0.00999999977648258],"scale":[0.400000005960464,0.400000005960464]}},"index":2},"metallicFactor":0,"roughnessFactor":1}},{"alphaMode":"BLEND","doubleSided":true,"extensions":{"KHR_materials_unlit":{}},"pbrMetallicRoughness":{"baseColorFactor":[0.412542849779129,0.715693295001984,0.99999988079071,0],"baseColorTexture":{"extensions":{"KHR_texture_transform":{"offset":[0,0.00999999977648258],"scale":[0.400000005960464,0.400000005960464]}},"index":3},"metallicFactor":0,"roughnessFactor":1}},{"alphaMode":"BLEND","doubleSided":true,"extensions":{"KHR_materials_unlit":{}},"pbrMetallicRoughness":{"baseColorFactor":[0.412542849779129,0.715693295001984,0.99999988079071,0.337255001068115],"baseColorTexture":{"extensions":{"KHR_texture_transform":{"offset":[0,0.00999999977648258],"scale":[0.400000005960464,0.400000005960464]}},"index":4},"metallicFactor":0,"roughnessFactor":1}}],"meshes":[{"extras":{"targetNames":[]},"primitives":[{"attributes":{"NORMAL":2,"POSITION":0,"TANGENT":1,"TEXCOORD_0":3},"indices":4,"material":0,"mode":4},{"attributes":{"NORMAL":7,"POSITION":5,"TANGENT":6,"TEXCOORD_0":8},"indices":9,"material":1,"mode":4}]},{"extras":{"targetNames":[]},"primitives":[{"attributes":{"NORMAL":12,"POSITION":10,"TANGENT":11,"TEXCOORD_0":13},"indices":14,"material":2,"mode":4},{"attributes":{"NORMAL":17,"POSITION":15,"TANGENT":16,"TEXCOORD_0":18},"indices":19,"material":3,"mode":4},{"attributes":{"NORMAL":22,"POSITION":20,"TANGENT":21,"TEXCOORD_0":23},"indices":24,"material":4,"mode":4}]}],"nodes":[{"children":[1,4,5],"extensions":{},"name":"Window"},{"children":[2,3],"extensions":{},"mesh":0,"name":"Window3"},{"extensions":{},"name":"CSGBox3D"},{"extensions":{},"name":"CSGBox3D2"},{"extensions":{},"name":"MeshInstance3D"},{"children":[6],"extensions":{"KHR_lights_punctual":{"light":0}},"name":"SpotLight3D","rotation":[-0.70710676908493,0,0,0.70710676908493],"translation":[0,0.0399999991059303,0]},{"children":[7],"extensions":{},"name":"Light","scale":[1,1.82000005245209,1],"translation":[0,0,0.0129380002617836]},{"children":[8,9],"extensions":{},"mesh":1,"name":"CSGCylinder3D2","rotation":[0.653281569480896,0.270598083734512,0.270598083734512,0.653281450271606],"translation":[0,0,-1.65771996974945]},{"extensions":{},"name":"CSGCylinder3D22","scale":[1.04999995231628,1.04999995231628,1.04999995231628],"translation":[0,-0.39017000794411,0]},{"extensions":{},"name":"CSGBox3D3","rotation":[0.00000000000000101967319086042,-0.38268345594406,-0,0.923879563808441],"translation":[0,4.60668992996216,0]}],"samplers":[{"magFilter":9729,"minFilter":9987,"wrapS":10497,"wrapT":10497}],"scene":0,"scenes":[{"nodes":[0]}],"textures":[{"sampler":0,"source":0},{"sampler":0,"source":1},{"sampler":0,"source":2},{"sampler":0,"source":3},{"sampler":0,"source":4}]}