{"accessors":[{"bufferView":0,"byteOffset":0,"componentType":5126,"count":264,"max":[0.17,0.17,0.17],"min":[-0.17,-0.14545,-0.17],"normalized":false,"type":"VEC3"},{"bufferView":1,"byteOffset":0,"componentType":5126,"count":264,"max":[1,0.226505,1,1],"min":[-1,-0.227842,-1,1],"normalized":false,"type":"VEC4"},{"bufferView":2,"byteOffset":0,"componentType":5126,"count":264,"max":[1,1,1],"min":[-1,-0.559083,-1],"normalized":false,"type":"VEC3"},{"bufferView":3,"byteOffset":0,"componentType":5126,"count":264,"max":[1,0.82858],"min":[0,0],"normalized":false,"type":"VEC2"},{"bufferView":4,"byteOffset":0,"componentType":5125,"count":264,"max":[263],"min":[0],"normalized":false,"type":"SCALAR"},{"bufferView":5,"byteOffset":0,"componentType":5126,"count":144,"max":[0.16,-0.140834,0.16],"min":[-0.16,-0.214737,-0.16],"normalized":false,"type":"VEC3"},{"bufferView":6,"byteOffset":0,"componentType":5126,"count":144,"max":[1,0.158903,0.997474,1],"min":[-0.997476,-0.158862,-0.997473,-1],"normalized":false,"type":"VEC4"},{"bufferView":7,"byteOffset":0,"componentType":5126,"count":144,"max":[0.985996,0.711549,0.985999],"min":[-0.985999,-1,-0.985988],"normalized":false,"type":"VEC3"},{"bufferView":8,"byteOffset":0,"componentType":5126,"count":144,"max":[1,0.5],"min":[0,0],"normalized":false,"type":"VEC2"},{"bufferView":9,"byteOffset":0,"componentType":5125,"count":144,"max":[143],"min":[0],"normalized":false,"type":"SCALAR"},{"bufferView":10,"byteOffset":0,"componentType":5126,"count":408,"max":[0.17,0.17,0.17],"min":[-0.17,-0.178516,-0.17],"normalized":false,"type":"VEC3"},{"bufferView":11,"byteOffset":0,"componentType":5126,"count":408,"max":[1,0.200496,1,1],"min":[-1,-0.227842,-1,-1],"normalized":false,"type":"VEC4"},{"bufferView":12,"byteOffset":0,"componentType":5126,"count":408,"max":[1,1,1],"min":[-1,-1,-1],"normalized":false,"type":"VEC3"},{"bufferView":13,"byteOffset":0,"componentType":5126,"count":408,"max":[1,0.780607],"min":[0,0],"normalized":false,"type":"VEC2"},{"bufferView":14,"byteOffset":0,"componentType":5125,"count":408,"max":[407],"min":[0],"normalized":false,"type":"SCALAR"}],"asset":{"generator":"Godot Engine v4.2.1.stable.mono.official@b09f793f564a6c95dc76acc654b390e68441bd01","version":"2.0"},"bufferViews":[{"buffer":0,"byteLength":3168,"byteOffset":0},{"buffer":0,"byteLength":4224,"byteOffset":3168},{"buffer":0,"byteLength":3168,"byteOffset":7392},{"buffer":0,"byteLength":2112,"byteOffset":10560},{"buffer":0,"byteLength":1056,"byteOffset":12672},{"buffer":0,"byteLength":1728,"byteOffset":13728},{"buffer":0,"byteLength":2304,"byteOffset":15456},{"buffer":0,"byteLength":1728,"byteOffset":17760},{"buffer":0,"byteLength":1152,"byteOffset":19488},{"buffer":0,"byteLength":576,"byteOffset":20640},{"buffer":0,"byteLength":4896,"byteOffset":21216},{"buffer":0,"byteLength":6528,"byteOffset":26112},{"buffer":0,"byteLength":4896,"byteOffset":32640},{"buffer":0,"byteLength":3264,"byteOffset":37536},{"buffer":0,"byteLength":1632,"byteOffset":40800}],"buffers":[{"byteLength":42432,"uri":"crystal_ball0.bin"}],"extensions":{"OMI_collider":{"colliders":[{"radius":0.172818005084991,"type":"sphere"},{"height":0.0599999986588955,"radius":0.159999996423721,"type":"cylinder"}]}},"extensionsUsed":["GODOT_single_root","KHR_materials_emissive_strength","KHR_materials_unlit","OMI_collider","OMI_physics_body"],"images":[{"uri":"textures%2F_albedo000.png"},{"uri":"textures%2F_normal000.png"}],"materials":[{"alphaMode":"BLEND","emissiveFactor":[0.659267246723175,0.894448220729828,0.933289647102356],"extensions":{"KHR_materials_emissive_strength":{"emissiveStrength":0.300000011920929}},"pbrMetallicRoughness":{"baseColorFactor":[0.0561284422874451,0.571124494075775,0.679542064666748,0.164706006646156],"metallicFactor":0.5,"roughnessFactor":0.109999999403954}},{"extensions":{},"normalTexture":{"index":1,"scale":0.270000010728836},"pbrMetallicRoughness":{"baseColorFactor":[0.141263484954834,0.0612461268901825,0.01444380171597,1],"baseColorTexture":{"index":0},"metallicFactor":0.509999990463257,"roughnessFactor":0.600000023841858}},{"extensions":{"KHR_materials_unlit":{}},"pbrMetallicRoughness":{"baseColorFactor":[0.467784494161606,0.0497066229581833,0.99999988079071,1],"metallicFactor":0,"roughnessFactor":1}}],"meshes":[{"extras":{"targetNames":[]},"primitives":[{"attributes":{"NORMAL":2,"POSITION":0,"TANGENT":1,"TEXCOORD_0":3},"indices":4,"material":0,"mode":4},{"attributes":{"NORMAL":7,"POSITION":5,"TANGENT":6,"TEXCOORD_0":8},"indices":9,"material":1,"mode":4}]},{"extras":{"targetNames":[]},"primitives":[{"attributes":{"NORMAL":12,"POSITION":10,"TANGENT":11,"TEXCOORD_0":13},"indices":14,"material":2,"mode":4}]}],"nodes":[{"children":[1,2,3,4,7],"extensions":{"OMI_physics_body":{"type":"character"}},"name":"Crystal Ball"},{"extensions":{},"name":"Magic"},{"extensions":{"OMI_collider":{"collider":0}},"name":"CollisionShape3D"},{"extensions":{"OMI_collider":{"collider":1}},"name":"CollisionShape3D2","translation":[0,-0.18482600152493,0]},{"children":[5],"extensions":{},"name":"Model"},{"children":[6],"extensions":{},"mesh":0,"name":"CSGBox3D2"},{"extensions":{},"name":"CSGCylinder3D","translation":[0,-0.1357370018959,0]},{"children":[8],"extensions":{},"name":"Glow"},{"children":[9],"extensions":{},"mesh":1,"name":"CSGBox3D23"},{"extensions":{},"name":"CSGCylinder3D2","translation":[0,-0.09951569885015,0]}],"samplers":[{"magFilter":9729,"minFilter":9987,"wrapS":10497,"wrapT":10497}],"scene":0,"scenes":[{"nodes":[0]}],"textures":[{"sampler":0,"source":0},{"sampler":0,"source":1}]}