{"accessors":[{"bufferView":0,"byteOffset":0,"componentType":5126,"count":1380,"max":[0.15,0.580252,0.15],"min":[-0.15,-0.15,-0.15],"normalized":false,"type":"VEC3"},{"bufferView":1,"byteOffset":0,"componentType":5126,"count":1380,"max":[1,0.276094,1,1],"min":[-1,-1,-1,-1],"normalized":false,"type":"VEC4"},{"bufferView":2,"byteOffset":0,"componentType":5126,"count":1380,"max":[1,1,1],"min":[-1,-1,-1],"normalized":false,"type":"VEC3"},{"bufferView":3,"byteOffset":0,"componentType":5126,"count":1380,"max":[1,1],"min":[0,0],"normalized":false,"type":"VEC2"},{"bufferView":4,"byteOffset":0,"componentType":5125,"count":1380,"max":[1379],"min":[0],"normalized":false,"type":"SCALAR"},{"bufferView":5,"byteOffset":0,"componentType":5126,"count":1380,"max":[0.15,0.580252,0.15],"min":[-0.15,-0.15,-0.15],"normalized":false,"type":"VEC3"},{"bufferView":6,"byteOffset":0,"componentType":5126,"count":1380,"max":[1,0.276094,1,1],"min":[-1,-1,-1,-1],"normalized":false,"type":"VEC4"},{"bufferView":7,"byteOffset":0,"componentType":5126,"count":1380,"max":[1,1,1],"min":[-1,-1,-1],"normalized":false,"type":"VEC3"},{"bufferView":8,"byteOffset":0,"componentType":5126,"count":1380,"max":[1,1],"min":[0,0],"normalized":false,"type":"VEC2"},{"bufferView":9,"byteOffset":0,"componentType":5125,"count":1380,"max":[1379],"min":[0],"normalized":false,"type":"SCALAR"}],"asset":{"generator":"Godot Engine v4.2.1.stable.mono.official@b09f793f564a6c95dc76acc654b390e68441bd01","version":"2.0"},"bufferViews":[{"buffer":0,"byteLength":16560,"byteOffset":0},{"buffer":0,"byteLength":22080,"byteOffset":16560},{"buffer":0,"byteLength":16560,"byteOffset":38640},{"buffer":0,"byteLength":11040,"byteOffset":55200},{"buffer":0,"byteLength":5520,"byteOffset":66240},{"buffer":0,"byteLength":16560,"byteOffset":71760},{"buffer":0,"byteLength":22080,"byteOffset":88320},{"buffer":0,"byteLength":16560,"byteOffset":110400},{"buffer":0,"byteLength":11040,"byteOffset":126960},{"buffer":0,"byteLength":5520,"byteOffset":138000}],"buffers":[{"byteLength":143520,"uri":"gold_statue0.bin"}],"extensions":{"OMI_collider":{"colliders":[{"size":[0.300000011920929,0.300000011920929,0.300000011920929],"type":"box"},{"height":0.366811990737915,"radius":0.0682144016027451,"type":"cylinder"}]}},"extensionsUsed":["GODOT_single_root","KHR_materials_emissive_strength","KHR_materials_unlit","OMI_collider","OMI_physics_body"],"images":[{"uri":"textures%2F_albedo000.png"},{"uri":"textures%2F_normal000.png"}],"materials":[{"emissiveFactor":[0.999999940395355,0.859590709209442,0.589020848274231],"extensions":{"KHR_materials_emissive_strength":{"emissiveStrength":0.0799999982118607}},"normalTexture":{"index":1,"scale":0.860000014305115},"pbrMetallicRoughness":{"baseColorFactor":[0.99999988079071,0.462077051401138,0.0761851966381073,1],"baseColorTexture":{"index":0},"metallicFactor":0.920000016689301,"roughnessFactor":0.490000009536743}},{"extensions":{"KHR_materials_unlit":{}},"pbrMetallicRoughness":{"baseColorFactor":[0.467784494161606,0.0497066229581833,0.99999988079071,1],"metallicFactor":0,"roughnessFactor":1}}],"meshes":[{"extras":{"targetNames":[]},"primitives":[{"attributes":{"NORMAL":2,"POSITION":0,"TANGENT":1,"TEXCOORD_0":3},"indices":4,"material":0,"mode":4}]},{"extras":{"targetNames":[]},"primitives":[{"attributes":{"NORMAL":7,"POSITION":5,"TANGENT":6,"TEXCOORD_0":8},"indices":9,"material":1,"mode":4}]}],"nodes":[{"children":[1,2,3,4,10],"extensions":{"OMI_physics_body":{"type":"character"}},"name":"Gold Statue"},{"extensions":{},"name":"Magic"},{"extensions":{"OMI_collider":{"collider":0}},"name":"Base Collision"},{"extensions":{"OMI_collider":{"collider":1}},"name":"Top Collision","translation":[0,0.291826009750366,0]},{"children":[5],"extensions":{},"name":"Model"},{"children":[6,7],"extensions":{},"mesh":0,"name":"CSGBox3D2"},{"extensions":{},"name":"CSGTorus3D","translation":[0,0.152698993682861,0]},{"children":[8],"extensions":{},"name":"CSGCylinder3D","translation":[0,0.301259994506836,0]},{"children":[9],"extensions":{},"name":"CSGCylinder3D2","translation":[0,0.147991999983788,0]},{"extensions":{},"name":"CSGCylinder3D3","translation":[0,-0.01783460006118,0]},{"children":[11],"extensions":{},"name":"Glow"},{"children":[12,13],"extensions":{},"mesh":1,"name":"CSGBox3D4"},{"extensions":{},"name":"CSGTorus3D2","translation":[0,0.152698993682861,0]},{"children":[14],"extensions":{},"name":"CSGCylinder3D4","translation":[0,0.301259994506836,0]},{"children":[15],"extensions":{},"name":"CSGCylinder3D22","translation":[0,0.147991999983788,0]},{"extensions":{},"name":"CSGCylinder3D32","translation":[0,-0.01783460006118,0]}],"samplers":[{"magFilter":9729,"minFilter":9987,"wrapS":10497,"wrapT":10497}],"scene":0,"scenes":[{"nodes":[0]}],"textures":[{"sampler":0,"source":0},{"sampler":0,"source":1}]}