{"accessors":[{"bufferView":0,"byteOffset":0,"componentType":5126,"count":963,"max":[0.161,0.057158,0.161],"min":[-0.161,-0.057158,-0.28074],"normalized":false,"type":"VEC3"},{"bufferView":1,"byteOffset":0,"componentType":5126,"count":963,"max":[1,0.666885,1,1],"min":[-1,-0.598782,-1,-1],"normalized":false,"type":"VEC4"},{"bufferView":2,"byteOffset":0,"componentType":5126,"count":963,"max":[1,0.939494,1],"min":[-1,-0.915473,-1],"normalized":false,"type":"VEC3"},{"bufferView":3,"byteOffset":0,"componentType":5126,"count":963,"max":[0.916667,0.833333],"min":[0,0],"normalized":false,"type":"VEC2"},{"bufferView":4,"byteOffset":0,"componentType":5125,"count":963,"max":[962],"min":[0],"normalized":false,"type":"SCALAR"},{"bufferView":5,"byteOffset":0,"componentType":5126,"count":963,"max":[0.161,0.057158,0.161],"min":[-0.161,-0.057158,-0.28074],"normalized":false,"type":"VEC3"},{"bufferView":6,"byteOffset":0,"componentType":5126,"count":963,"max":[1,0.666885,1,1],"min":[-1,-0.598782,-1,-1],"normalized":false,"type":"VEC4"},{"bufferView":7,"byteOffset":0,"componentType":5126,"count":963,"max":[1,0.939494,1],"min":[-1,-0.915473,-1],"normalized":false,"type":"VEC3"},{"bufferView":8,"byteOffset":0,"componentType":5126,"count":963,"max":[0.916667,0.833333],"min":[0,0],"normalized":false,"type":"VEC2"},{"bufferView":9,"byteOffset":0,"componentType":5125,"count":963,"max":[962],"min":[0],"normalized":false,"type":"SCALAR"}],"asset":{"generator":"Godot Engine v4.2.1.stable.mono.official@b09f793f564a6c95dc76acc654b390e68441bd01","version":"2.0"},"bufferViews":[{"buffer":0,"byteLength":11556,"byteOffset":0},{"buffer":0,"byteLength":15408,"byteOffset":11556},{"buffer":0,"byteLength":11556,"byteOffset":26964},{"buffer":0,"byteLength":7704,"byteOffset":38520},{"buffer":0,"byteLength":3852,"byteOffset":46224},{"buffer":0,"byteLength":11556,"byteOffset":50076},{"buffer":0,"byteLength":15408,"byteOffset":61632},{"buffer":0,"byteLength":11556,"byteOffset":77040},{"buffer":0,"byteLength":7704,"byteOffset":88596},{"buffer":0,"byteLength":3852,"byteOffset":96300}],"buffers":[{"byteLength":100152,"uri":"jade_ring0.bin"}],"extensions":{"OMI_collider":{"colliders":[{"radius":0.205564007163048,"type":"sphere"}]}},"extensionsUsed":["GODOT_single_root","KHR_materials_emissive_strength","KHR_materials_unlit","OMI_collider","OMI_physics_body"],"images":[{"uri":"textures%2F_normal000.png"}],"materials":[{"alphaMode":"BLEND","emissiveFactor":[0.766764760017395,0.882352292537689,0],"extensions":{"KHR_materials_emissive_strength":{"emissiveStrength":0.0500000007450581}},"normalTexture":{"index":0,"scale":0.400000005960464},"pbrMetallicRoughness":{"baseColorFactor":[0,0.356400638818741,0.0822826772928238,0.980391979217529],"metallicFactor":0.550000011920929,"roughnessFactor":0.270000010728836}},{"extensions":{"KHR_materials_unlit":{}},"pbrMetallicRoughness":{"baseColorFactor":[0.467784494161606,0.0497066229581833,0.99999988079071,1],"metallicFactor":0,"roughnessFactor":1}}],"meshes":[{"extras":{"targetNames":[]},"primitives":[{"attributes":{"NORMAL":2,"POSITION":0,"TANGENT":1,"TEXCOORD_0":3},"indices":4,"material":0,"mode":4}]},{"extras":{"targetNames":[]},"primitives":[{"attributes":{"NORMAL":7,"POSITION":5,"TANGENT":6,"TEXCOORD_0":8},"indices":9,"material":1,"mode":4}]}],"nodes":[{"children":[1,2,3,6],"extensions":{"OMI_physics_body":{"type":"character"}},"name":"Jade Rings"},{"extensions":{},"name":"Magic"},{"extensions":{"OMI_collider":{"collider":0}},"name":"CollisionShape3D","translation":[0,0.0449149012565613,0]},{"children":[4],"extensions":{},"name":"Model"},{"children":[5],"extensions":{},"mesh":0,"name":"CSGTorus3D2","rotation":[0.70710676908493,0,0,0.70710676908493]},{"extensions":{},"name":"CSGTorus3D22","translation":[0,0,-0.19573999941349]},{"children":[7],"extensions":{},"name":"Glow"},{"children":[8],"extensions":{},"mesh":1,"name":"CSGTorus3D24","rotation":[0.70710676908493,0,0,0.70710676908493]},{"extensions":{},"name":"CSGTorus3D25","translation":[0,0,-0.19573999941349]}],"samplers":[{"magFilter":9729,"minFilter":9987,"wrapS":10497,"wrapT":10497}],"scene":0,"scenes":[{"nodes":[0]}],"textures":[{"sampler":0,"source":0}]}