{"accessors":[{"bufferView":0,"byteOffset":0,"componentType":5126,"count":480,"max":[0.17,0.17,0.17],"min":[-0.17,-0.17,-0.17],"normalized":false,"type":"VEC3"},{"bufferView":1,"byteOffset":0,"componentType":5126,"count":480,"max":[1,0.418772,0.999862,1],"min":[-1,-0.695251,-0.999863,1],"normalized":false,"type":"VEC4"},{"bufferView":2,"byteOffset":0,"componentType":5126,"count":480,"max":[0.993257,1,1],"min":[-0.993259,-1,-1],"normalized":false,"type":"VEC3"},{"bufferView":3,"byteOffset":0,"componentType":5126,"count":480,"max":[1,1],"min":[0,0],"normalized":false,"type":"VEC2"},{"bufferView":4,"byteOffset":0,"componentType":5125,"count":480,"max":[479],"min":[0],"normalized":false,"type":"SCALAR"},{"bufferView":5,"byteOffset":0,"componentType":5126,"count":681,"max":[0.128677,0.13,0.156467],"min":[-0.128677,-0.13,0.096173],"normalized":false,"type":"VEC3"},{"bufferView":6,"byteOffset":0,"componentType":5126,"count":681,"max":[0.998642,0.560153,0.999951,1],"min":[-0.994543,-0.50904,-0.999701,1],"normalized":false,"type":"VEC4"},{"bufferView":7,"byteOffset":0,"componentType":5126,"count":681,"max":[0.993257,0.999295,0.976278],"min":[-0.995965,-0.999295,-0.401643],"normalized":false,"type":"VEC3"},{"bufferView":8,"byteOffset":0,"componentType":5126,"count":681,"max":[1,1],"min":[0,0],"normalized":false,"type":"VEC2"},{"bufferView":9,"byteOffset":0,"componentType":5125,"count":681,"max":[680],"min":[0],"normalized":false,"type":"SCALAR"},{"bufferView":10,"byteOffset":0,"componentType":5126,"count":1161,"max":[0.17,0.17,0.17],"min":[-0.17,-0.17,-0.17],"normalized":false,"type":"VEC3"},{"bufferView":11,"byteOffset":0,"componentType":5126,"count":1161,"max":[1,0.560153,0.999951,1],"min":[-1,-0.695251,-0.999863,1],"normalized":false,"type":"VEC4"},{"bufferView":12,"byteOffset":0,"componentType":5126,"count":1161,"max":[0.993257,1,1],"min":[-0.995965,-1,-1],"normalized":false,"type":"VEC3"},{"bufferView":13,"byteOffset":0,"componentType":5126,"count":1161,"max":[1,1],"min":[0,0],"normalized":false,"type":"VEC2"},{"bufferView":14,"byteOffset":0,"componentType":5125,"count":1161,"max":[1160],"min":[0],"normalized":false,"type":"SCALAR"}],"asset":{"generator":"Godot Engine v4.2.1.stable.mono.official@b09f793f564a6c95dc76acc654b390e68441bd01","version":"2.0"},"bufferViews":[{"buffer":0,"byteLength":5760,"byteOffset":0},{"buffer":0,"byteLength":7680,"byteOffset":5760},{"buffer":0,"byteLength":5760,"byteOffset":13440},{"buffer":0,"byteLength":3840,"byteOffset":19200},{"buffer":0,"byteLength":1920,"byteOffset":23040},{"buffer":0,"byteLength":8172,"byteOffset":24960},{"buffer":0,"byteLength":10896,"byteOffset":33132},{"buffer":0,"byteLength":8172,"byteOffset":44028},{"buffer":0,"byteLength":5448,"byteOffset":52200},{"buffer":0,"byteLength":2724,"byteOffset":57648},{"buffer":0,"byteLength":13932,"byteOffset":60372},{"buffer":0,"byteLength":18576,"byteOffset":74304},{"buffer":0,"byteLength":13932,"byteOffset":92880},{"buffer":0,"byteLength":9288,"byteOffset":106812},{"buffer":0,"byteLength":4644,"byteOffset":116100}],"buffers":[{"byteLength":120744,"uri":"revelation_eye0.bin"}],"extensions":{"OMI_collider":{"colliders":[{"radius":0.172818005084991,"type":"sphere"}]}},"extensionsUsed":["GODOT_single_root","KHR_materials_unlit","OMI_collider","OMI_physics_body"],"images":[{"uri":"textures%2F_normal000.png"},{"uri":"textures%2F_normal002.png"}],"materials":[{"extensions":{},"normalTexture":{"index":0,"scale":0.200000002980232},"pbrMetallicRoughness":{"baseColorFactor":[0.0331047587096691,0.0331047587096691,0.0331047587096691,1],"metallicFactor":0.5,"roughnessFactor":0.310000002384186}},{"extensions":{},"normalTexture":{"index":1,"scale":0.200000002980232},"pbrMetallicRoughness":{"baseColorFactor":[0.982250690460205,0.262251049280167,0.0451861433684826,1],"metallicFactor":0.5,"roughnessFactor":0.310000002384186}},{"extensions":{"KHR_materials_unlit":{}},"pbrMetallicRoughness":{"baseColorFactor":[0.467784494161606,0.0497066229581833,0.99999988079071,1],"metallicFactor":0,"roughnessFactor":1}}],"meshes":[{"extras":{"targetNames":[]},"primitives":[{"attributes":{"NORMAL":2,"POSITION":0,"TANGENT":1,"TEXCOORD_0":3},"indices":4,"material":0,"mode":4},{"attributes":{"NORMAL":7,"POSITION":5,"TANGENT":6,"TEXCOORD_0":8},"indices":9,"material":1,"mode":4}]},{"extras":{"targetNames":[]},"primitives":[{"attributes":{"NORMAL":12,"POSITION":10,"TANGENT":11,"TEXCOORD_0":13},"indices":14,"material":2,"mode":4}]}],"nodes":[{"children":[1,2,3,6],"extensions":{"OMI_physics_body":{"type":"character"}},"name":"Revelation Eye"},{"extensions":{},"name":"Magic"},{"extensions":{"OMI_collider":{"collider":0}},"name":"CollisionShape3D"},{"children":[4],"extensions":{},"name":"Model"},{"children":[5],"extensions":{},"mesh":0,"name":"CSGBox3D2"},{"extensions":{},"name":"CSGBox3D22","scale":[1,1,0.400000005960464],"translation":[0,0,0.107215002179146]},{"children":[7],"extensions":{},"name":"Glow"},{"children":[8],"extensions":{},"mesh":1,"name":"CSGBox3D24"},{"extensions":{},"name":"CSGBox3D25","scale":[1,1,0.400000005960464],"translation":[0,0,0.107215002179146]}],"samplers":[{"magFilter":9729,"minFilter":9987,"wrapS":10497,"wrapT":10497}],"scene":0,"scenes":[{"nodes":[0]}],"textures":[{"sampler":0,"source":0},{"sampler":0,"source":1}]}