{"accessors":[{"bufferView":0,"byteOffset":0,"componentType":5126,"count":2457,"max":[0.440349,0.2355,0.356395],"min":[-0.440349,-0.033342,-0.356395],"normalized":false,"type":"VEC3"},{"bufferView":1,"byteOffset":0,"componentType":5126,"count":2457,"max":[0.999024,0.791888,1,1],"min":[-1,-0.995546,-1,-1],"normalized":false,"type":"VEC4"},{"bufferView":2,"byteOffset":0,"componentType":5126,"count":2457,"max":[1,1,1],"min":[-1,-1,-1],"normalized":false,"type":"VEC3"},{"bufferView":3,"byteOffset":0,"componentType":5126,"count":2457,"max":[1,0.833333],"min":[0,0],"normalized":false,"type":"VEC2"},{"bufferView":4,"byteOffset":0,"componentType":5125,"count":2457,"max":[2456],"min":[0],"normalized":false,"type":"SCALAR"},{"bufferView":5,"byteOffset":0,"componentType":5126,"count":438,"max":[0.291297,0.009009,0.356395],"min":[-0.291297,0.0088,-0.356395],"normalized":false,"type":"VEC3"},{"bufferView":6,"byteOffset":0,"componentType":5126,"count":438,"max":[0.568681,0.070717,-0.822558,1],"min":[-0.341225,-0.146034,-1,1],"normalized":false,"type":"VEC4"},{"bufferView":7,"byteOffset":0,"componentType":5126,"count":438,"max":[0.062535,-0.983022,0.139955],"min":[-0.11866,-1,-0.072279],"normalized":false,"type":"VEC3"},{"bufferView":8,"byteOffset":0,"componentType":5126,"count":438,"max":[0.856395,0.791319],"min":[0.143785,0.208703],"normalized":false,"type":"VEC2"},{"bufferView":9,"byteOffset":0,"componentType":5125,"count":438,"max":[437],"min":[0],"normalized":false,"type":"SCALAR"},{"bufferView":10,"byteOffset":0,"componentType":5126,"count":456,"max":[0.258781,0.211656,0.185191],"min":[-0.258781,0.0085,-0.185336],"normalized":false,"type":"VEC3"},{"bufferView":11,"byteOffset":0,"componentType":5126,"count":456,"max":[0.999982,0.973009,0.296338,1],"min":[-0.731968,-0.902742,-0.99625,-1],"normalized":false,"type":"VEC4"},{"bufferView":12,"byteOffset":0,"componentType":5126,"count":456,"max":[0.97094,0.998874,1],"min":[-1,-0.960979,-1],"normalized":false,"type":"VEC3"},{"bufferView":13,"byteOffset":0,"componentType":5126,"count":456,"max":[0.923077,0.833333],"min":[0.537795,0],"normalized":false,"type":"VEC2"},{"bufferView":14,"byteOffset":0,"componentType":5125,"count":456,"max":[455],"min":[0],"normalized":false,"type":"SCALAR"},{"bufferView":15,"byteOffset":0,"componentType":5126,"count":195,"max":[0.160622,0.173,0.320622],"min":[-0.160622,0.058368,0.225556],"normalized":false,"type":"VEC3"},{"bufferView":16,"byteOffset":0,"componentType":5126,"count":195,"max":[0.707139,0.055016,0.752113,1],"min":[-0.733044,-0.121179,-0.798901,-1],"normalized":false,"type":"VEC4"},{"bufferView":17,"byteOffset":0,"componentType":5126,"count":195,"max":[0.707139,0.774618,0.707107],"min":[-0.70715,-0.774599,-0.707139],"normalized":false,"type":"VEC3"},{"bufferView":18,"byteOffset":0,"componentType":5126,"count":195,"max":[1,0.758401],"min":[0,0],"normalized":false,"type":"VEC2"},{"bufferView":19,"byteOffset":0,"componentType":5125,"count":195,"max":[194],"min":[0],"normalized":false,"type":"SCALAR"},{"bufferView":20,"byteOffset":0,"componentType":5126,"count":3546,"max":[0.440349,0.2355,0.356395],"min":[-0.440349,-0.033342,-0.356395],"normalized":false,"type":"VEC3"},{"bufferView":21,"byteOffset":0,"componentType":5126,"count":3546,"max":[0.999982,0.973009,1,1],"min":[-1,-0.995546,-1,-1],"normalized":false,"type":"VEC4"},{"bufferView":22,"byteOffset":0,"componentType":5126,"count":3546,"max":[1,1,1],"min":[-1,-1,-1],"normalized":false,"type":"VEC3"},{"bufferView":23,"byteOffset":0,"componentType":5126,"count":3546,"max":[1,0.833333],"min":[0,0],"normalized":false,"type":"VEC2"},{"bufferView":24,"byteOffset":0,"componentType":5125,"count":3546,"max":[3545],"min":[0],"normalized":false,"type":"SCALAR"}],"asset":{"generator":"Godot Engine v4.2.1.stable.mono.official@b09f793f564a6c95dc76acc654b390e68441bd01","version":"2.0"},"bufferViews":[{"buffer":0,"byteLength":29484,"byteOffset":0},{"buffer":0,"byteLength":39312,"byteOffset":29484},{"buffer":0,"byteLength":29484,"byteOffset":68796},{"buffer":0,"byteLength":19656,"byteOffset":98280},{"buffer":0,"byteLength":9828,"byteOffset":117936},{"buffer":0,"byteLength":5256,"byteOffset":127764},{"buffer":0,"byteLength":7008,"byteOffset":133020},{"buffer":0,"byteLength":5256,"byteOffset":140028},{"buffer":0,"byteLength":3504,"byteOffset":145284},{"buffer":0,"byteLength":1752,"byteOffset":148788},{"buffer":0,"byteLength":5472,"byteOffset":150540},{"buffer":0,"byteLength":7296,"byteOffset":156012},{"buffer":0,"byteLength":5472,"byteOffset":163308},{"buffer":0,"byteLength":3648,"byteOffset":168780},{"buffer":0,"byteLength":1824,"byteOffset":172428},{"buffer":0,"byteLength":2340,"byteOffset":174252},{"buffer":0,"byteLength":3120,"byteOffset":176592},{"buffer":0,"byteLength":2340,"byteOffset":179712},{"buffer":0,"byteLength":1560,"byteOffset":182052},{"buffer":0,"byteLength":780,"byteOffset":183612},{"buffer":0,"byteLength":42552,"byteOffset":184392},{"buffer":0,"byteLength":56736,"byteOffset":226944},{"buffer":0,"byteLength":42552,"byteOffset":283680},{"buffer":0,"byteLength":28368,"byteOffset":326232},{"buffer":0,"byteLength":14184,"byteOffset":354600}],"buffers":[{"byteLength":368784,"uri":"scarab0.bin"}],"extensions":{"OMI_collider":{"colliders":[{"height":0.10274899750948,"radius":0.19226099550724,"type":"cylinder"}]}},"extensionsUsed":["GODOT_single_root","KHR_materials_emissive_strength","KHR_materials_unlit","OMI_collider","OMI_physics_body"],"images":[{"uri":"textures%2F_albedo000.png"},{"uri":"textures%2F_normal000.png"},{"uri":"textures%2F_albedo002.png"},{"uri":"textures%2F_normal002.png"},{"uri":"textures%2F_albedo003.png"},{"uri":"textures%2F_normal003.png"}],"materials":[{"emissiveFactor":[0.999999940395355,0.859590709209442,0.589020848274231],"extensions":{"KHR_materials_emissive_strength":{"emissiveStrength":0.0799999982118607}},"normalTexture":{"index":1,"scale":0.860000014305115},"pbrMetallicRoughness":{"baseColorFactor":[0.99999988079071,0.462077051401138,0.0761851966381073,1],"baseColorTexture":{"index":0},"metallicFactor":0.920000016689301,"roughnessFactor":0.490000009536743}},{"extensions":{},"normalTexture":{"index":3,"scale":0.860000014305115},"pbrMetallicRoughness":{"baseColorFactor":[0.99999988079071,0.462077051401138,0.0761851966381073,1],"baseColorTexture":{"index":2},"metallicFactor":0.920000016689301,"roughnessFactor":0.490000009536743}},{"extensions":{},"normalTexture":{"index":5,"scale":0.860000014305115},"pbrMetallicRoughness":{"baseColorFactor":[0.99999988079071,0.462077051401138,0.0761851966381073,1],"baseColorTexture":{"index":4},"metallicFactor":0.920000016689301,"roughnessFactor":0.490000009536743}},{"alphaMode":"BLEND","emissiveFactor":[0.938933968544006,0,0.715642213821411],"extensions":{"KHR_materials_emissive_strength":{"emissiveStrength":0.100000001490116}},"pbrMetallicRoughness":{"baseColorFactor":[0.723055601119995,0,0.187820509076118,0.749019980430603],"metallicFactor":0.360000014305115,"roughnessFactor":0.409999996423721}},{"extensions":{"KHR_materials_unlit":{}},"pbrMetallicRoughness":{"baseColorFactor":[0.467784494161606,0.0497066229581833,0.99999988079071,1],"metallicFactor":0,"roughnessFactor":1}}],"meshes":[{"extras":{"targetNames":[]},"primitives":[{"attributes":{"NORMAL":2,"POSITION":0,"TANGENT":1,"TEXCOORD_0":3},"indices":4,"material":0,"mode":4},{"attributes":{"NORMAL":7,"POSITION":5,"TANGENT":6,"TEXCOORD_0":8},"indices":9,"material":1,"mode":4},{"attributes":{"NORMAL":12,"POSITION":10,"TANGENT":11,"TEXCOORD_0":13},"indices":14,"material":2,"mode":4},{"attributes":{"NORMAL":17,"POSITION":15,"TANGENT":16,"TEXCOORD_0":18},"indices":19,"material":3,"mode":4}]},{"extras":{"targetNames":[]},"primitives":[{"attributes":{"NORMAL":22,"POSITION":20,"TANGENT":21,"TEXCOORD_0":23},"indices":24,"material":4,"mode":4}]}],"nodes":[{"children":[1,2,3,17],"extensions":{"OMI_physics_body":{"type":"character"}},"name":"Gold Scarab"},{"extensions":{},"name":"Magic"},{"extensions":{"OMI_collider":{"collider":0}},"name":"CollisionShape3D","translation":[0,0.0495465993881226,0]},{"children":[4],"extensions":{},"name":"Model","scale":[0.44990000128746,0.44990000128746,0.44990000128746]},{"children":[5,6,7,8,9,11,13,15,16],"extensions":{},"mesh":0,"name":"CSGCombiner3D2"},{"extensions":{},"name":"CSGSphere3D","scale":[1,0.785000026226044,1.20000004768372]},{"extensions":{},"name":"CSGBox3D","translation":[0,-0.49120000004768,0]},{"extensions":{},"name":"CSGTorus3D","rotation":[0.70710676908493,0,0,0.70710676908493],"translation":[0,-0.06630170345306,0.17807500064373]},{"extensions":{},"name":"CSGTorus3D5","rotation":[-0.5,-0.5,0.5,-0.5],"scale":[1.34500002861023,1,1],"translation":[0,-0.05802970007062,-0.20394200086594]},{"children":[10],"extensions":{},"name":"CSGTorus3D2","translation":[0,0,-0.5633749961853]},{"extensions":{},"name":"CSGBox3D2","translation":[0,0,-0.22803600132465]},{"children":[12],"extensions":{},"name":"CSGTorus3D3","translation":[0,0,-0.38594698905945]},{"extensions":{},"name":"CSGBox3D3","translation":[0,0,-0.22803600132465]},{"children":[14],"extensions":{},"name":"CSGTorus3D4","rotation":[1,0,0,-0.0000000437114],"translation":[0,0,0.518395006656647]},{"extensions":{},"name":"CSGBox3D4","translation":[0,0,-0.22803600132465]},{"extensions":{},"name":"CSGSphere3D2","translation":[0.100000001490116,0.103000000119209,0.259999990463257]},{"extensions":{},"name":"CSGSphere3D3","translation":[-0.10000000149012,0.103000000119209,0.259999990463257]},{"children":[18],"extensions":{},"name":"Glow","scale":[0.44990000128746,0.44990000128746,0.44990000128746]},{"children":[19,20,21,22,23,25,27,29,30],"extensions":{},"mesh":1,"name":"CSGCombiner3D4"},{"extensions":{},"name":"CSGSphere3D4","scale":[1,0.785000026226044,1.20000004768372]},{"extensions":{},"name":"CSGBox3D5","translation":[0,-0.49120000004768,0]},{"extensions":{},"name":"CSGTorus3D6","rotation":[0.70710676908493,0,0,0.70710676908493],"translation":[0,-0.06630170345306,0.17807500064373]},{"extensions":{},"name":"CSGTorus3D52","rotation":[-0.5,-0.5,0.5,-0.5],"scale":[1.34500002861023,1,1],"translation":[0,-0.05802970007062,-0.20394200086594]},{"children":[24],"extensions":{},"name":"CSGTorus3D22","translation":[0,0,-0.5633749961853]},{"extensions":{},"name":"CSGBox3D6","translation":[0,0,-0.22803600132465]},{"children":[26],"extensions":{},"name":"CSGTorus3D32","translation":[0,0,-0.38594698905945]},{"extensions":{},"name":"CSGBox3D7","translation":[0,0,-0.22803600132465]},{"children":[28],"extensions":{},"name":"CSGTorus3D42","rotation":[1,0,0,-0.0000000437114],"translation":[0,0,0.518395006656647]},{"extensions":{},"name":"CSGBox3D8","translation":[0,0,-0.22803600132465]},{"extensions":{},"name":"CSGSphere3D22","translation":[0.100000001490116,0.103000000119209,0.259999990463257]},{"extensions":{},"name":"CSGSphere3D32","translation":[-0.10000000149012,0.103000000119209,0.259999990463257]}],"samplers":[{"magFilter":9729,"minFilter":9987,"wrapS":10497,"wrapT":10497}],"scene":0,"scenes":[{"nodes":[0]}],"textures":[{"sampler":0,"source":0},{"sampler":0,"source":1},{"sampler":0,"source":2},{"sampler":0,"source":3},{"sampler":0,"source":4},{"sampler":0,"source":5}]}