{"accessors":[{"bufferView":0,"byteOffset":0,"componentType":5126,"count":744,"max":[0.085,0.3,0.011182],"min":[-0.135,-0.3,-0.128818],"normalized":false,"type":"VEC3"},{"bufferView":1,"byteOffset":0,"componentType":5126,"count":744,"max":[1,0.007378,0.999878,1],"min":[-1,-1,-1,-1],"normalized":false,"type":"VEC4"},{"bufferView":2,"byteOffset":0,"componentType":5126,"count":744,"max":[1,1,1],"min":[-1,-1,-1],"normalized":false,"type":"VEC3"},{"bufferView":3,"byteOffset":0,"componentType":5126,"count":744,"max":[1,1],"min":[0,0],"normalized":false,"type":"VEC2"},{"bufferView":4,"byteOffset":0,"componentType":5125,"count":744,"max":[743],"min":[0],"normalized":false,"type":"SCALAR"},{"bufferView":5,"byteOffset":0,"componentType":5126,"count":768,"max":[0.085,0.356388,-0.038818],"min":[-0.085,-0.356388,-0.078818],"normalized":false,"type":"VEC3"},{"bufferView":6,"byteOffset":0,"componentType":5126,"count":768,"max":[0.993049,0.875891,0.99219,1],"min":[-0.990607,-0.824173,-0.992404,-1],"normalized":false,"type":"VEC4"},{"bufferView":7,"byteOffset":0,"componentType":5126,"count":768,"max":[0.992484,0.545607,0.990607],"min":[-0.990607,-0.667861,-0.993402],"normalized":false,"type":"VEC3"},{"bufferView":8,"byteOffset":0,"componentType":5126,"count":768,"max":[0.875,0.994984],"min":[0,0.002875],"normalized":false,"type":"VEC2"},{"bufferView":9,"byteOffset":0,"componentType":5125,"count":768,"max":[767],"min":[0],"normalized":false,"type":"SCALAR"},{"bufferView":10,"byteOffset":0,"componentType":5126,"count":1470,"max":[0.103042,0.43,-0.018818],"min":[-0.103042,-0.43,-0.098818],"normalized":false,"type":"VEC3"},{"bufferView":11,"byteOffset":0,"componentType":5126,"count":1470,"max":[1,0.289881,1,1],"min":[-1,-0.220303,-1,1],"normalized":false,"type":"VEC4"},{"bufferView":12,"byteOffset":0,"componentType":5126,"count":1470,"max":[0.951061,1,1],"min":[-0.956117,-1,-1],"normalized":false,"type":"VEC3"},{"bufferView":13,"byteOffset":0,"componentType":5126,"count":1470,"max":[1,1],"min":[0,0],"normalized":false,"type":"VEC2"},{"bufferView":14,"byteOffset":0,"componentType":5125,"count":1470,"max":[1469],"min":[0],"normalized":false,"type":"SCALAR"},{"bufferView":15,"byteOffset":0,"componentType":5126,"count":594,"max":[0.135,0.3,0.011182],"min":[-0.005,-0.3,-0.128818],"normalized":false,"type":"VEC3"},{"bufferView":16,"byteOffset":0,"componentType":5126,"count":594,"max":[1,0.029965,0.999878,1],"min":[-1,-0.068678,-1,-1],"normalized":false,"type":"VEC4"},{"bufferView":17,"byteOffset":0,"componentType":5126,"count":594,"max":[0.990607,1,1],"min":[-0.856816,-1,-1],"normalized":false,"type":"VEC3"},{"bufferView":18,"byteOffset":0,"componentType":5126,"count":594,"max":[1,1],"min":[0,0],"normalized":false,"type":"VEC2"},{"bufferView":19,"byteOffset":0,"componentType":5125,"count":594,"max":[593],"min":[0],"normalized":false,"type":"SCALAR"},{"bufferView":20,"byteOffset":0,"componentType":5126,"count":3576,"max":[0.135,0.43,0.011182],"min":[-0.135,-0.43,-0.128818],"normalized":false,"type":"VEC3"},{"bufferView":21,"byteOffset":0,"componentType":5126,"count":3576,"max":[1,0.875891,1,1],"min":[-1,-1,-1,-1],"normalized":false,"type":"VEC4"},{"bufferView":22,"byteOffset":0,"componentType":5126,"count":3576,"max":[1,1,1],"min":[-1,-1,-1],"normalized":false,"type":"VEC3"},{"bufferView":23,"byteOffset":0,"componentType":5126,"count":3576,"max":[1,1],"min":[0,0],"normalized":false,"type":"VEC2"},{"bufferView":24,"byteOffset":0,"componentType":5125,"count":3576,"max":[3575],"min":[0],"normalized":false,"type":"SCALAR"}],"asset":{"generator":"Godot Engine v4.2.1.stable.mono.official@b09f793f564a6c95dc76acc654b390e68441bd01","version":"2.0"},"bufferViews":[{"buffer":0,"byteLength":8928,"byteOffset":0},{"buffer":0,"byteLength":11904,"byteOffset":8928},{"buffer":0,"byteLength":8928,"byteOffset":20832},{"buffer":0,"byteLength":5952,"byteOffset":29760},{"buffer":0,"byteLength":2976,"byteOffset":35712},{"buffer":0,"byteLength":9216,"byteOffset":38688},{"buffer":0,"byteLength":12288,"byteOffset":47904},{"buffer":0,"byteLength":9216,"byteOffset":60192},{"buffer":0,"byteLength":6144,"byteOffset":69408},{"buffer":0,"byteLength":3072,"byteOffset":75552},{"buffer":0,"byteLength":17640,"byteOffset":78624},{"buffer":0,"byteLength":23520,"byteOffset":96264},{"buffer":0,"byteLength":17640,"byteOffset":119784},{"buffer":0,"byteLength":11760,"byteOffset":137424},{"buffer":0,"byteLength":5880,"byteOffset":149184},{"buffer":0,"byteLength":7128,"byteOffset":155064},{"buffer":0,"byteLength":9504,"byteOffset":162192},{"buffer":0,"byteLength":7128,"byteOffset":171696},{"buffer":0,"byteLength":4752,"byteOffset":178824},{"buffer":0,"byteLength":2376,"byteOffset":183576},{"buffer":0,"byteLength":42912,"byteOffset":185952},{"buffer":0,"byteLength":57216,"byteOffset":228864},{"buffer":0,"byteLength":42912,"byteOffset":286080},{"buffer":0,"byteLength":28608,"byteOffset":328992},{"buffer":0,"byteLength":14304,"byteOffset":357600}],"buffers":[{"byteLength":371904,"uri":"scroll0.bin"}],"extensions":{"OMI_collider":{"colliders":[{"size":[0.300000011920929,0.150000005960464,0.875],"type":"box"}]}},"extensionsUsed":["GODOT_single_root","KHR_materials_unlit","OMI_collider","OMI_physics_body"],"images":[{"uri":"textures%2F_normal000.png"},{"uri":"textures%2F_normal002.png"},{"uri":"textures%2F_normal003.png"},{"uri":"textures%2F_normal004.png"}],"materials":[{"extensions":{},"normalTexture":{"index":0,"scale":0.300000011920929},"pbrMetallicRoughness":{"baseColorFactor":[0.768151044845581,0.462077051401138,0.132868319749832,1],"metallicFactor":0,"roughnessFactor":1}},{"extensions":{},"normalTexture":{"index":1,"scale":0.300000011920929},"pbrMetallicRoughness":{"baseColorFactor":[0.198069348931313,0.00402471655979753,0,1],"metallicFactor":0,"roughnessFactor":1}},{"extensions":{},"normalTexture":{"index":2,"scale":0.300000011920929},"pbrMetallicRoughness":{"baseColorFactor":[0.198069348931313,0.00402471655979753,0,1],"metallicFactor":0,"roughnessFactor":1}},{"extensions":{},"normalTexture":{"index":3,"scale":0.300000011920929},"pbrMetallicRoughness":{"baseColorFactor":[0.768151044845581,0.462077051401138,0.132868319749832,1],"metallicFactor":0,"roughnessFactor":1}},{"extensions":{"KHR_materials_unlit":{}},"pbrMetallicRoughness":{"baseColorFactor":[0.467784494161606,0.0497066229581833,0.99999988079071,1],"metallicFactor":0,"roughnessFactor":1}}],"meshes":[{"extras":{"targetNames":[]},"primitives":[{"attributes":{"NORMAL":2,"POSITION":0,"TANGENT":1,"TEXCOORD_0":3},"indices":4,"material":0,"mode":4},{"attributes":{"NORMAL":7,"POSITION":5,"TANGENT":6,"TEXCOORD_0":8},"indices":9,"material":1,"mode":4},{"attributes":{"NORMAL":12,"POSITION":10,"TANGENT":11,"TEXCOORD_0":13},"indices":14,"material":2,"mode":4},{"attributes":{"NORMAL":17,"POSITION":15,"TANGENT":16,"TEXCOORD_0":18},"indices":19,"material":3,"mode":4}]},{"extras":{"targetNames":[]},"primitives":[{"attributes":{"NORMAL":22,"POSITION":20,"TANGENT":21,"TEXCOORD_0":23},"indices":24,"material":4,"mode":4}]}],"nodes":[{"children":[1,2,3,13],"extensions":{"OMI_physics_body":{"type":"character"}},"name":"Stealth Scroll"},{"extensions":{},"name":"Magic"},{"extensions":{"OMI_collider":{"collider":0}},"name":"CollisionShape3D","translation":[0,0.0702141001820564,0]},{"children":[4],"extensions":{},"name":"Model"},{"children":[5,9],"extensions":{},"mesh":0,"name":"CSGCylinder3D32","rotation":[0.70710676908493,0,0,0.70710676908493]},{"children":[6],"extensions":{},"name":"CSGCylinder3D","translation":[-0.06499999761581,-0.00000000257103,-0.05881819874048]},{"children":[7,8],"extensions":{},"name":"CSGCylinder3D33"},{"extensions":{},"name":"CSGSphere3D","translation":[0,0.389999985694885,0]},{"extensions":{},"name":"CSGSphere3D2","translation":[0,-0.38999998569489,0]},{"children":[10],"extensions":{},"name":"CSGCylinder3D2","translation":[0.0649999976158142,-0.00000000257103,-0.05881819874048]},{"children":[11,12],"extensions":{},"name":"CSGCylinder3D34"},{"extensions":{},"name":"CSGSphere3D3","translation":[0,0.389999985694885,0]},{"extensions":{},"name":"CSGSphere3D22","translation":[0,-0.38999998569489,0]},{"children":[14],"extensions":{},"name":"Glow"},{"children":[15,19],"extensions":{},"mesh":1,"name":"CSGCylinder3D36","rotation":[0.70710676908493,0,0,0.70710676908493]},{"children":[16],"extensions":{},"name":"CSGCylinder3D4","translation":[-0.06499999761581,-0.00000000257103,-0.05881819874048]},{"children":[17,18],"extensions":{},"name":"CSGCylinder3D37"},{"extensions":{},"name":"CSGSphere3D4","translation":[0,0.389999985694885,0]},{"extensions":{},"name":"CSGSphere3D23","translation":[0,-0.38999998569489,0]},{"children":[20],"extensions":{},"name":"CSGCylinder3D22","translation":[0.0649999976158142,-0.00000000257103,-0.05881819874048]},{"children":[21,22],"extensions":{},"name":"CSGCylinder3D38"},{"extensions":{},"name":"CSGSphere3D5","translation":[0,0.389999985694885,0]},{"extensions":{},"name":"CSGSphere3D24","translation":[0,-0.38999998569489,0]}],"samplers":[{"magFilter":9729,"minFilter":9987,"wrapS":10497,"wrapT":10497}],"scene":0,"scenes":[{"nodes":[0]}],"textures":[{"sampler":0,"source":0},{"sampler":0,"source":1},{"sampler":0,"source":2},{"sampler":0,"source":3}]}