{"accessors":[{"bufferView":0,"byteOffset":0,"componentType":5126,"count":57,"max":[0.2,0.038276,0.3],"min":[-0.193199,-0.04212,-0.3],"normalized":false,"type":"VEC3"},{"bufferView":1,"byteOffset":0,"componentType":5126,"count":57,"max":[0.000092,0,0.054385,-1],"min":[-1,-1,-0.005169,-1],"normalized":false,"type":"VEC4"},{"bufferView":2,"byteOffset":0,"componentType":5126,"count":57,"max":[1,0,1],"min":[-0.000015,-0.000015,-1],"normalized":false,"type":"VEC3"},{"bufferView":3,"byteOffset":0,"componentType":5126,"count":57,"max":[0.982998,1],"min":[0,0],"normalized":false,"type":"VEC2"},{"bufferView":4,"byteOffset":0,"componentType":5125,"count":57,"max":[56],"min":[0],"normalized":false,"type":"SCALAR"},{"bufferView":5,"byteOffset":0,"componentType":5126,"count":324,"max":[0.21,0.068276,0.31],"min":[-0.223199,-0.07212,-0.31],"normalized":false,"type":"VEC3"},{"bufferView":6,"byteOffset":0,"componentType":5126,"count":324,"max":[1,0.059934,0.999904,1],"min":[-1,-1,-1,-1],"normalized":false,"type":"VEC4"},{"bufferView":7,"byteOffset":0,"componentType":5126,"count":324,"max":[1,1,1],"min":[-1,-1,-1],"normalized":false,"type":"VEC3"},{"bufferView":8,"byteOffset":0,"componentType":5126,"count":324,"max":[1,1],"min":[0,0],"normalized":false,"type":"VEC2"},{"bufferView":9,"byteOffset":0,"componentType":5125,"count":324,"max":[323],"min":[0],"normalized":false,"type":"SCALAR"},{"bufferView":10,"byteOffset":0,"componentType":5126,"count":381,"max":[0.21,0.068276,0.31],"min":[-0.223199,-0.07212,-0.31],"normalized":false,"type":"VEC3"},{"bufferView":11,"byteOffset":0,"componentType":5126,"count":381,"max":[1,0.059934,0.999904,1],"min":[-1,-1,-1,-1],"normalized":false,"type":"VEC4"},{"bufferView":12,"byteOffset":0,"componentType":5126,"count":381,"max":[1,1,1],"min":[-1,-1,-1],"normalized":false,"type":"VEC3"},{"bufferView":13,"byteOffset":0,"componentType":5126,"count":381,"max":[1,1],"min":[0,0],"normalized":false,"type":"VEC2"},{"bufferView":14,"byteOffset":0,"componentType":5125,"count":381,"max":[380],"min":[0],"normalized":false,"type":"SCALAR"}],"asset":{"generator":"Godot Engine v4.2.1.stable.mono.official@b09f793f564a6c95dc76acc654b390e68441bd01","version":"2.0"},"bufferViews":[{"buffer":0,"byteLength":684,"byteOffset":0},{"buffer":0,"byteLength":912,"byteOffset":684},{"buffer":0,"byteLength":684,"byteOffset":1596},{"buffer":0,"byteLength":456,"byteOffset":2280},{"buffer":0,"byteLength":228,"byteOffset":2736},{"buffer":0,"byteLength":3888,"byteOffset":2964},{"buffer":0,"byteLength":5184,"byteOffset":6852},{"buffer":0,"byteLength":3888,"byteOffset":12036},{"buffer":0,"byteLength":2592,"byteOffset":15924},{"buffer":0,"byteLength":1296,"byteOffset":18516},{"buffer":0,"byteLength":4572,"byteOffset":19812},{"buffer":0,"byteLength":6096,"byteOffset":24384},{"buffer":0,"byteLength":4572,"byteOffset":30480},{"buffer":0,"byteLength":3048,"byteOffset":35052},{"buffer":0,"byteLength":1524,"byteOffset":38100}],"buffers":[{"byteLength":39624,"uri":"spellbook0.bin"}],"extensions":{"OMI_collider":{"colliders":[{"size":[0.5,0.150000005960464,0.600000023841858],"type":"box"}]}},"extensionsUsed":["GODOT_single_root","KHR_materials_unlit","OMI_collider","OMI_physics_body"],"images":[{"uri":"textures%2F_normal000.png"},{"uri":"textures%2F_normal002.png"}],"materials":[{"extensions":{},"normalTexture":{"index":0,"scale":0.300000011920929},"pbrMetallicRoughness":{"baseColorFactor":[0.791298449039459,0.637597024440765,0.445200800895691,1],"metallicFactor":0,"roughnessFactor":0.449999988079071}},{"extensions":{},"normalTexture":{"index":1,"scale":0.300000011920929},"pbrMetallicRoughness":{"baseColorFactor":[0.0193824432790279,0.0561284422874451,0.17144076526165,1],"metallicFactor":0,"roughnessFactor":0.449999988079071}},{"extensions":{"KHR_materials_unlit":{}},"pbrMetallicRoughness":{"baseColorFactor":[0.467784494161606,0.0497066229581833,0.99999988079071,1],"metallicFactor":0,"roughnessFactor":1}}],"meshes":[{"extras":{"targetNames":[]},"primitives":[{"attributes":{"NORMAL":2,"POSITION":0,"TANGENT":1,"TEXCOORD_0":3},"indices":4,"material":0,"mode":4},{"attributes":{"NORMAL":7,"POSITION":5,"TANGENT":6,"TEXCOORD_0":8},"indices":9,"material":1,"mode":4}]},{"extras":{"targetNames":[]},"primitives":[{"attributes":{"NORMAL":12,"POSITION":10,"TANGENT":11,"TEXCOORD_0":13},"indices":14,"material":2,"mode":4}]}],"nodes":[{"children":[1,2,3,10],"extensions":{"OMI_physics_body":{"type":"character"}},"name":"Spell Book"},{"extensions":{},"name":"Magic"},{"extensions":{"OMI_collider":{"collider":0}},"name":"CollisionShape3D"},{"children":[4],"extensions":{},"name":"Model"},{"children":[5,8,9],"extensions":{},"mesh":0,"name":"CSGBox3D2"},{"children":[6,7],"extensions":{},"name":"CSGBox3D22","translation":[0,0.0532759018242359,0]},{"extensions":{},"name":"Decal","translation":[0,0.0270665995776653,0]},{"extensions":{},"name":"Decal2","translation":[0,0.0270665995776653,0]},{"extensions":{},"name":"CSGBox3D3","translation":[0,-0.05712020024657,0]},{"extensions":{},"name":"CSGBox3D4","rotation":[0,0,0.70710676908493,0.70710676908493],"translation":[-0.20819899439812,-0.00021078399732,0]},{"children":[11],"extensions":{},"name":"Glow"},{"children":[12,13,14],"extensions":{},"mesh":1,"name":"CSGBox3D6"},{"extensions":{},"name":"CSGBox3D23","translation":[0,0.0532759018242359,0]},{"extensions":{},"name":"CSGBox3D32","translation":[0,-0.05712020024657,0]},{"extensions":{},"name":"CSGBox3D42","rotation":[0,0,0.70710676908493,0.70710676908493],"translation":[-0.20819899439812,-0.00021078399732,0]}],"samplers":[{"magFilter":9729,"minFilter":9987,"wrapS":10497,"wrapT":10497}],"scene":0,"scenes":[{"nodes":[0]}],"textures":[{"sampler":0,"source":0},{"sampler":0,"source":1}]}