{"accessors":[{"bufferView":0,"byteOffset":0,"componentType":5126,"count":654,"max":[0.15,0.15,0.15],"min":[-0.15,-0.15,-0.15],"normalized":false,"type":"VEC3"},{"bufferView":1,"byteOffset":0,"componentType":5126,"count":654,"max":[1,1,1,1],"min":[-1,-1,-1,-1],"normalized":false,"type":"VEC4"},{"bufferView":2,"byteOffset":0,"componentType":5126,"count":654,"max":[1,1,1],"min":[-1,-1,-1],"normalized":false,"type":"VEC3"},{"bufferView":3,"byteOffset":0,"componentType":5126,"count":654,"max":[1,1],"min":[0.003135,0.004333],"normalized":false,"type":"VEC2"},{"bufferView":4,"byteOffset":0,"componentType":5125,"count":654,"max":[653],"min":[0],"normalized":false,"type":"SCALAR"},{"bufferView":5,"byteOffset":0,"componentType":5126,"count":894,"max":[0.1575,0.1575,0.1575],"min":[-0.1575,-0.1575,-0.1575],"normalized":false,"type":"VEC3"},{"bufferView":6,"byteOffset":0,"componentType":5126,"count":894,"max":[0.044125,0.033283,0.038069,1],"min":[-1,-1,-1,-1],"normalized":false,"type":"VEC4"},{"bufferView":7,"byteOffset":0,"componentType":5126,"count":894,"max":[1,1,1],"min":[-1,-1,-1],"normalized":false,"type":"VEC3"},{"bufferView":8,"byteOffset":0,"componentType":5126,"count":894,"max":[1,1],"min":[0,0],"normalized":false,"type":"VEC2"},{"bufferView":9,"byteOffset":0,"componentType":5125,"count":894,"max":[893],"min":[0],"normalized":false,"type":"SCALAR"},{"bufferView":10,"byteOffset":0,"componentType":5126,"count":1548,"max":[0.1575,0.1575,0.1575],"min":[-0.1575,-0.1575,-0.1575],"normalized":false,"type":"VEC3"},{"bufferView":11,"byteOffset":0,"componentType":5126,"count":1548,"max":[1,1,1,1],"min":[-1,-1,-1,-1],"normalized":false,"type":"VEC4"},{"bufferView":12,"byteOffset":0,"componentType":5126,"count":1548,"max":[1,1,1],"min":[-1,-1,-1],"normalized":false,"type":"VEC3"},{"bufferView":13,"byteOffset":0,"componentType":5126,"count":1548,"max":[1,1],"min":[0,0],"normalized":false,"type":"VEC2"},{"bufferView":14,"byteOffset":0,"componentType":5125,"count":1548,"max":[1547],"min":[0],"normalized":false,"type":"SCALAR"}],"asset":{"generator":"Godot Engine v4.2.1.stable.mono.official@b09f793f564a6c95dc76acc654b390e68441bd01","version":"2.0"},"bufferViews":[{"buffer":0,"byteLength":7848,"byteOffset":0},{"buffer":0,"byteLength":10464,"byteOffset":7848},{"buffer":0,"byteLength":7848,"byteOffset":18312},{"buffer":0,"byteLength":5232,"byteOffset":26160},{"buffer":0,"byteLength":2616,"byteOffset":31392},{"buffer":0,"byteLength":10728,"byteOffset":34008},{"buffer":0,"byteLength":14304,"byteOffset":44736},{"buffer":0,"byteLength":10728,"byteOffset":59040},{"buffer":0,"byteLength":7152,"byteOffset":69768},{"buffer":0,"byteLength":3576,"byteOffset":76920},{"buffer":0,"byteLength":18576,"byteOffset":80496},{"buffer":0,"byteLength":24768,"byteOffset":99072},{"buffer":0,"byteLength":18576,"byteOffset":123840},{"buffer":0,"byteLength":12384,"byteOffset":142416},{"buffer":0,"byteLength":6192,"byteOffset":154800}],"buffers":[{"byteLength":160992,"uri":"tesseract0.bin"}],"extensions":{"OMI_collider":{"colliders":[{"size":[0.349999994039536,0.449999988079071,0.349999994039536],"type":"box"}]}},"extensionsUsed":["GODOT_single_root","KHR_materials_emissive_strength","KHR_materials_unlit","OMI_collider","OMI_physics_body"],"images":[{"uri":"textures%2F_normal000.png"},{"uri":"textures%2F_normal002.png"}],"materials":[{"emissiveFactor":[0.365252196788788,0.731469511985779,0.918013036251068],"extensions":{"KHR_materials_emissive_strength":{"emissiveStrength":5}},"normalTexture":{"index":0,"scale":9.60999965667725},"pbrMetallicRoughness":{"baseColorFactor":[0.165131971240044,0.617206335067749,0.99999988079071,1],"metallicFactor":0.46000000834465,"roughnessFactor":0.569999992847443}},{"extensions":{},"normalTexture":{"index":1,"scale":0.270000010728836},"pbrMetallicRoughness":{"baseColorFactor":[0.558340311050415,0.533276796340942,0.514917612075806,1],"metallicFactor":0.769999980926514,"roughnessFactor":0.360000014305115}},{"extensions":{"KHR_materials_unlit":{}},"pbrMetallicRoughness":{"baseColorFactor":[0.467784494161606,0.0497066229581833,0.99999988079071,1],"metallicFactor":0,"roughnessFactor":1}}],"meshes":[{"extras":{"targetNames":[]},"primitives":[{"attributes":{"NORMAL":2,"POSITION":0,"TANGENT":1,"TEXCOORD_0":3},"indices":4,"material":0,"mode":4},{"attributes":{"NORMAL":7,"POSITION":5,"TANGENT":6,"TEXCOORD_0":8},"indices":9,"material":1,"mode":4}]},{"extras":{"targetNames":[]},"primitives":[{"attributes":{"NORMAL":12,"POSITION":10,"TANGENT":11,"TEXCOORD_0":13},"indices":14,"material":2,"mode":4}]}],"nodes":[{"children":[1,2,3,13],"extensions":{"OMI_physics_body":{"type":"character"}},"name":"Tesseract"},{"extensions":{},"name":"Magic"},{"extensions":{"OMI_collider":{"collider":0}},"name":"CollisionShape3D"},{"children":[4],"extensions":{},"name":"Model"},{"children":[5,6],"extensions":{},"mesh":0,"name":"CSGCombiner3D2"},{"extensions":{},"name":"CSGBox3D"},{"children":[7,8,9,10,11,12],"extensions":{},"name":"CSGBox3D2","scale":[1.04999995231628,1.04999995231628,1.04999995231628]},{"extensions":{},"name":"CSGBox3D3","translation":[0,0.0435026995837688,0]},{"extensions":{},"name":"CSGBox3D5","translation":[0.0195924993604422,0,0]},{"extensions":{},"name":"CSGBox3D6","translation":[-0.03695600107312,0,0]},{"extensions":{},"name":"CSGBox3D7","translation":[0,0,0.0162004008889198]},{"extensions":{},"name":"CSGBox3D8","translation":[0,0,-0.0287983994931]},{"extensions":{},"name":"CSGBox3D4","translation":[0,-0.02906670048833,0]},{"children":[14],"extensions":{},"name":"Glow"},{"children":[15,16],"extensions":{},"mesh":1,"name":"CSGCombiner3D4"},{"extensions":{},"name":"CSGBox3D9"},{"children":[17,18,19,20,21,22],"extensions":{},"name":"CSGBox3D22","scale":[1.04999995231628,1.04999995231628,1.04999995231628]},{"extensions":{},"name":"CSGBox3D32","translation":[0,0.0435026995837688,0]},{"extensions":{},"name":"CSGBox3D52","translation":[0.0195924993604422,0,0]},{"extensions":{},"name":"CSGBox3D62","translation":[-0.03695600107312,0,0]},{"extensions":{},"name":"CSGBox3D72","translation":[0,0,0.0162004008889198]},{"extensions":{},"name":"CSGBox3D82","translation":[0,0,-0.0287983994931]},{"extensions":{},"name":"CSGBox3D42","translation":[0,-0.02906670048833,0]}],"samplers":[{"magFilter":9729,"minFilter":9987,"wrapS":10497,"wrapT":10497}],"scene":0,"scenes":[{"nodes":[0]}],"textures":[{"sampler":0,"source":0},{"sampler":0,"source":1}]}